<?xml version="1.0" encoding="utf-8"?>
<svg xmlns="http://www.w3.org/2000/svg" xmlns:xlink="http://www.w3.org/1999/xlink" viewBox="0 0 5200 2200" preserveAspectRatio="xMidYMid slice">
  <defs>
    <linearGradient id="fade" x1="0" x2="1" y1="0" y2="0">
      <stop offset="0" stop-color="white" stop-opacity="0"/>
      <stop offset="0.18" stop-color="white" stop-opacity="1"/>
      <stop offset="0.82" stop-color="white" stop-opacity="1"/>
      <stop offset="1" stop-color="white" stop-opacity="0"/>
    </linearGradient>
    <mask id="soft-x">
      <rect width="5200" height="2200" fill="url(#fade)"/>
    </mask>
  </defs>
  <g mask="url(#soft-x)" opacity="0.72" transform="translate(-1900 -780) scale(1.08)">
<g transform="translate(9000 0) rotate(90)">
<g>
<g>
		<defs>
			<path id="SVGID_1_" d="M1857.92,2.56c-353.779,76.52-712.727,181.989-920.697,363.737
				C674.13,596.215,653.078,949.257,1191.94,1522.613c635.905,676.623,699.169,1019.172,505.508,1188.414
				c-213.252,186.359-738.299,160.625-1151.91,140.345l-32.809-1.61c-159.583-7.76-340.688,19.961-511.508,81.442v-7.857
				c171.044-61.163,352.179-88.702,511.901-80.929l32.806,1.61c412.218,20.201,935.509,45.851,1146.413-138.462
				c190.395-166.385,125.978-505.518-506.063-1178.024C643.555,950.069,665.769,593.604,932.113,360.843
				C1134.913,183.62,1479.504,78.717,1823.527,2.56H1857.92z"/>
		</defs>
		<clipPath id="SVGID_00000008111281512188749120000001108578805934111121_">
			<use xlink:href="#SVGID_1_"  style="overflow:visible;"/>
		</clipPath>
		
			<linearGradient id="SVGID_00000053529873029594598510000012907742179972254139_" gradientUnits="userSpaceOnUse" x1="493.2829" y1="985.2625" x2="2362.699" y2="2973.3027">
			<stop  offset="0" style="stop-color:#0131B8"/>
			<stop  offset="1" style="stop-color:#39D4FF"/>
		</linearGradient>
		
			<rect x="1.221" y="2.56" style="clip-path:url(#SVGID_00000008111281512188749120000001108578805934111121_);fill:url(#SVGID_00000053529873029594598510000012907742179972254139_);" width="1889.888" height="2928.644"/>
	</g>
	<g>
		<defs>
			<path id="SVGID_00000067195550368940845230000004303439215178386875_" d="M2208.998,2.56
				C1789.026,82.983,1286.58,186.685,1026.75,412.252c-252.804,219.47-275.577,555.356,232.729,1099.802l0.029,0.032
				c575.479,629.136,605.142,950.729,407.205,1119.088c-191.073,162.508-594.272,180.859-922.366,195.787
				c-71.919,3.266-140.219,6.37-202.054,10.818c-124.202,30.682-333.37,82.799-541.073,169.274v-8.02
				c207.414-86.014,415.734-137.897,539.518-168.469l0.666-0.104c61.689-4.442,130.316-7.565,202.573-10.851
				c326.912-14.87,728.643-33.15,917.687-193.943c194.671-165.58,163.768-483.784-407.841-1108.699
				c-512.18-548.583-488.254-887.872-232.184-1110.173c253.635-220.197,735.396-324.6,1148.306-404.237H2208.998z"/>
		</defs>
		<clipPath id="SVGID_00000106864415862219920560000000105093542666575517_">
			<use xlink:href="#SVGID_00000067195550368940845230000004303439215178386875_"  style="overflow:visible;"/>
		</clipPath>
		
			<linearGradient id="SVGID_00000142142759733498385870000017133035768365074575_" gradientUnits="userSpaceOnUse" x1="558.7109" y1="923.7374" x2="2428.1267" y2="2911.7773">
			<stop  offset="0" style="stop-color:#0131B8"/>
			<stop  offset="1" style="stop-color:#39D4FF"/>
		</linearGradient>
		
			<rect x="1.221" y="2.56" style="clip-path:url(#SVGID_00000106864415862219920560000000105093542666575517_);fill:url(#SVGID_00000142142759733498385870000017133035768365074575_);" width="2207.777" height="3004.495"/>
	</g>
	<g>
		<defs>
			<path id="SVGID_00000121993841864198210820000007229193516460526263_" d="M2558.397,2.56
				c-78.738,17.247-166.336,34.254-258.902,52.221c-412.244,80.014-923.028,179.164-1183.248,403.413
				c-242.538,209.015-267.045,527.739,210.781,1043.308l0.049,0.052c515.521,581.304,514.531,881.976,312.711,1048.393
				c-171.359,141.307-487.511,184.859-754.52,221.632c-120.167,16.552-230.366,31.74-312.672,53.825
				c-49.039,57.221-187.46,109.592-353.757,172.489c-69.195,26.182-143.242,54.195-217.619,85.111v-8.007
				c73.458-30.461,146.511-58.104,214.853-83.949c166.161-62.858,304.34-115.137,351.386-171.196l0.776-0.916l1.175-0.325
				c82.767-22.351,193.732-37.637,314.789-54.305c265.996-36.63,580.947-80.014,750.611-219.931
				c198.554-163.729,198.167-461.03-313.519-1038.029c-481.615-519.687-455.93-841.8-210.129-1053.633
				c261.791-225.606,773.686-324.964,1186.826-405.153c79.637-15.461,155.599-30.208,225.363-45H2558.397z"/>
		</defs>
		<clipPath id="SVGID_00000099646812399720246070000012821303070647786645_">
			<use xlink:href="#SVGID_00000121993841864198210820000007229193516460526263_"  style="overflow:visible;"/>
		</clipPath>
		
			<linearGradient id="SVGID_00000153672898933492277400000008844739181295986096_" gradientUnits="userSpaceOnUse" x1="632.4756" y1="854.3719" x2="2501.8899" y2="2842.4104">
			<stop  offset="0" style="stop-color:#0131B8"/>
			<stop  offset="1" style="stop-color:#39D4FF"/>
		</linearGradient>
		
			<rect x="1.221" y="2.56" style="clip-path:url(#SVGID_00000099646812399720246070000012821303070647786645_);fill:url(#SVGID_00000153672898933492277400000008844739181295986096_);" width="2557.176" height="3080.444"/>
	</g>
	<g>
		<defs>
			<path id="SVGID_00000116201310484459303510000001820123241038951084_" d="M2810.26,2.56
				c-15.776,5.981-31.945,11.935-48.627,17.851l-0.143,0.052c-110.183,34.507-261.944,64.533-430.105,97.793
				c-393.559,77.838-877.183,173.508-1125.624,385.848c-232.301,198.547-258.555,500.115,188.823,986.827l0.084,0.097
				c456.309,533.304,427.907,813.014,222.664,976.308c-154.924,123.261-410.637,179.463-634.094,228.567
				c-159.855,35.13-303.133,66.624-380.198,116.241c3.597,117.988-207.723,195.606-455.108,286.451
				c-47.978,17.617-97.322,35.741-146.712,54.741v-7.909c48.491-18.624,96.91-36.409,144.011-53.702
				c246.064-90.358,456.069-167.489,450.137-281.347l-0.104-2.059l1.776-1.162c77.799-51.02,222.71-82.864,384.507-118.417
				c222.616-48.922,477.362-104.903,630.928-227.086c201.905-160.651,228.833-437.03-223.625-965.846
				C937.652,1004.92,965.094,699.95,1200.69,498.591c249.95-213.632,734.695-309.509,1129.156-387.536
				c167.911-33.215,319.445-63.189,429.29-97.598c10.205-3.617,20.175-7.253,30.036-10.896H2810.26z"/>
		</defs>
		<clipPath id="SVGID_00000149359926549846992690000015097116290399463326_">
			<use xlink:href="#SVGID_00000116201310484459303510000001820123241038951084_"  style="overflow:visible;"/>
		</clipPath>
		
			<linearGradient id="SVGID_00000048494606705185972140000001866738719688635795_" gradientUnits="userSpaceOnUse" x1="681.7621" y1="808.0295" x2="2551.178" y2="2796.0696">
			<stop  offset="0" style="stop-color:#0131B8"/>
			<stop  offset="1" style="stop-color:#39D4FF"/>
		</linearGradient>
		
			<rect x="1.221" y="2.56" style="clip-path:url(#SVGID_00000149359926549846992690000015097116290399463326_);fill:url(#SVGID_00000048494606705185972140000001866738719688635795_);" width="2809.039" height="3150.776"/>
	</g>
	<g>
		<defs>
			<path id="SVGID_00000016050802413719202180000015145444267465512086_" d="M2970.648,2.56
				c-53.698,27.604-115.348,54.676-185.645,81.189l-0.176,0.065c-107.874,34.721-256.84,64.773-421.543,98.007
				c-374.805,75.624-831.365,167.748-1068.026,368.146c-222.103,188.06-250.129,472.491,166.872,930.418l0.127,0.156
				c398.286,485.336,345.864,744.085,137.768,902.872c-141.82,108.215-355.925,169.469-548.508,224.561
				c-195.401,55.897-368.507,105.43-419.306,190.502c53.835,117.189-40.452,196.255-197.554,264.99
				c-85.959,37.611-190.999,72.221-300.73,108.365c-43.789,14.422-88.332,29.098-132.706,44.312v-7.799
				c43.572-14.916,87.274-29.305,130.258-43.468c109.43-36.046,214.181-70.566,300.019-108.118
				c153.774-67.286,246.064-144.131,192.953-257.002l-0.792-1.682l0.925-1.617c51.137-88.656,226.596-138.845,424.767-195.534
				c191.908-54.903,405.273-115.949,545.953-223.288c204.713-156.203,255.532-411.666-138.933-892.404
				c-420.803-462.102-391.572-749.929-166.154-940.801c238.168-201.664,695.805-294.009,1071.497-369.815
				c164.463-33.182,313.204-63.189,420.621-97.761c64.465-24.312,121.55-49.098,171.865-74.293H2970.648z"/>
		</defs>
		<clipPath id="SVGID_00000083785023425656702330000015631302986768448148_">
			<use xlink:href="#SVGID_00000016050802413719202180000015145444267465512086_"  style="overflow:visible;"/>
		</clipPath>
		
			<linearGradient id="SVGID_00000158731524064666333320000005493012001422746498_" gradientUnits="userSpaceOnUse" x1="708.6514" y1="782.7453" x2="2578.0652" y2="2770.783">
			<stop  offset="0" style="stop-color:#0131B8"/>
			<stop  offset="1" style="stop-color:#39D4FF"/>
		</linearGradient>
		
			<rect x="1.221" y="2.56" style="clip-path:url(#SVGID_00000083785023425656702330000015631302986768448148_);fill:url(#SVGID_00000158731524064666333320000005493012001422746498_);" width="2969.427" height="3213.582"/>
	</g>
	<g>
		<defs>
			<path id="SVGID_00000017493980567734051820000015734289797645292170_" d="M3086.548,2.56
				c-69.666,49.442-161.209,97.676-278.162,144.521l-0.23,0.084c-105.55,34.961-251.73,65.085-412.975,98.313
				c-355.948,73.351-785.507,161.865-1010.418,350.308c-211.947,177.567-241.798,444.855,144.917,874.054l0.159,0.195
				c342.019,437.933,268.967,675.688,58.559,828.488c-131.738,95.67-317.282,157.631-488.16,214.69
				c-229.6,76.683-432.549,144.469-439.657,272.048c85.449,120.54,50.315,204.989-50.757,272.048
				c-104.994,69.65-281.642,120.118-467.361,173.19c-46.845,13.377-94.257,26.935-141.242,40.994v-7.708
				c46.283-13.831,92.955-27.169,139.076-40.345c185.112-52.89,361.188-103.196,465.209-172.203
				c97.52-64.708,131.229-146.268,48.023-262.879l-0.711-1l0.055-1.26c6.127-133.313,211.95-202.054,444.881-279.84
				c170.342-56.89,355.295-118.65,486.047-213.606c206.983-150.313,278.334-384.848-59.945-818.053
				c-390.439-433.361-359.373-704.026-144.102-884.378c226.411-189.69,657.022-278.425,1013.831-351.951
				c160.992-33.176,306.938-63.254,411.961-98.027c111.676-44.734,199.934-90.683,267.902-137.683H3086.548z"/>
		</defs>
		<clipPath id="SVGID_00000134956544572858736820000018267870201268902067_">
			<use xlink:href="#SVGID_00000017493980567734051820000015734289797645292170_"  style="overflow:visible;"/>
		</clipPath>
		
			<linearGradient id="SVGID_00000124864422836956033760000018333759539819099789_" gradientUnits="userSpaceOnUse" x1="725.595" y1="766.8122" x2="2595.0085" y2="2754.8496">
			<stop  offset="0" style="stop-color:#0131B8"/>
			<stop  offset="1" style="stop-color:#39D4FF"/>
		</linearGradient>
		
			<rect x="1.221" y="2.56" style="clip-path:url(#SVGID_00000134956544572858736820000018267870201268902067_);fill:url(#SVGID_00000124864422836956033760000018333759539819099789_);" width="3085.327" height="3268.933"/>
	</g>
	<g>
		<defs>
			<path id="SVGID_00000128450139442530297070000016096873289074540967_" d="M3168.094,2.56
				c-69.114,71.157-178.053,140.599-336.344,207.84l-0.26,0.11c-103.141,35.228-246.603,65.462-404.419,98.715
				c-336.971,71.007-739.582,155.839-952.791,332.308c-201.859,167.066-233.554,417.231,122.943,817.754l0.218,0.266
				c288.197,391.731,197.521,608.538-14.877,753.832c-124.212,84.969-290.074,145.203-445.832,201.762
				c-264.038,95.884-498.82,181.151-447.826,357.445c124.375,142.923,111.29,240.528,20.539,314.126
				c-107.021,86.8-322.928,139.177-547.531,193.658c-53.527,12.981-107.55,26.085-160.693,39.799v-7.611
				c52.559-13.539,105.943-26.494,158.839-39.318c223.729-54.273,438.803-106.436,544.482-192.151
				c87.316-70.819,99.329-165.294-22.016-304.425l-0.529-0.604l-0.227-0.753c-53.76-183.274,184.401-269.756,452.287-367.029
				c155.281-56.39,320.639-116.429,444.089-200.891c208.895-142.897,297.753-356.555,13.166-743.455
				c-360.127-404.66-327.175-658.162-122.001-827.988c214.674-177.664,618.308-262.723,956.135-333.906
				c157.514-33.195,300.701-63.364,403.455-98.462c153.44-65.195,259.976-132.345,328.464-201.021H3168.094z"/>
		</defs>
		<clipPath id="SVGID_00000144306563906002788690000011009872384818361255_">
			<use xlink:href="#SVGID_00000128450139442530297070000016096873289074540967_"  style="overflow:visible;"/>
		</clipPath>
		
			<linearGradient id="SVGID_00000052782430493546936740000018144471996070181265_" gradientUnits="userSpaceOnUse" x1="735.0859" y1="757.8861" x2="2604.5" y2="2745.9241">
			<stop  offset="0" style="stop-color:#0131B8"/>
			<stop  offset="1" style="stop-color:#39D4FF"/>
		</linearGradient>
		
			<rect x="1.221" y="2.56" style="clip-path:url(#SVGID_00000144306563906002788690000011009872384818361255_);fill:url(#SVGID_00000052782430493546936740000018144471996070181265_);" width="3166.873" height="3317.615"/>
	</g>
	<g>
		<defs>
			<path id="SVGID_00000137126421122135140900000007086294812378515642_" d="M3221.725,2.56
				c-55.543,92.533-171.167,183.242-366.591,271.171l-0.312,0.13c-100.848,35.598-241.567,65.955-395.877,99.248
				c-317.86,68.572-693.604,149.644-895.122,314.087c-191.849,156.56-225.463,389.614,100.949,761.546l0.276,0.364
				c237.635,347.666,131.466,543.706-83.15,680.097c-118.758,75.488-270.649,132.475-415.624,186.853
				c-96.556,36.221-190.051,71.306-268.379,109.819c-165.027,81.17-262.993,177.917-180.55,334.354
				c166.989,169.859,170.943,282.191,82.582,363.042c-108.485,99.274-357.198,149.547-612.665,201.184
				c-62.263,12.584-124.933,25.253-186.041,38.721v-7.552c60.63-13.344,122.748-25.903,184.472-38.377
				c254.398-51.422,502.086-101.488,608.983-199.301c85.049-77.825,80.26-186.904-83.254-353.068l-0.383-0.383l-0.25-0.481
				c-85.66-161.937,14.503-261.496,183.648-344.685c78.721-38.715,172.359-73.851,269.067-110.131
				c144.634-54.254,296.172-111.105,414.205-186.119c210.999-134.105,315.237-327.062,81.114-669.74
				c-329.993-376.088-295.126-612.46-99.936-771.747c202.986-165.631,579.716-246.918,898.398-315.672
				c154.004-33.221,294.434-63.526,394.809-98.936C3043.116,181.016,3156.951,92.587,3212.51,2.56H3221.725z"/>
		</defs>
		<clipPath id="SVGID_00000093882598364386144490000005758866622854426024_">
			<use xlink:href="#SVGID_00000137126421122135140900000007086294812378515642_"  style="overflow:visible;"/>
		</clipPath>
		
			<linearGradient id="SVGID_00000044862714735696348970000008031679591676243361_" gradientUnits="userSpaceOnUse" x1="738.5859" y1="754.5917" x2="2608.001" y2="2742.6309">
			<stop  offset="0" style="stop-color:#0131B8"/>
			<stop  offset="1" style="stop-color:#39D4FF"/>
		</linearGradient>
		
			<rect x="1.221" y="2.56" style="clip-path:url(#SVGID_00000093882598364386144490000005758866622854426024_);fill:url(#SVGID_00000044862714735696348970000008031679591676243361_);" width="3220.504" height="3360.615"/>
	</g>
	<g>
		<defs>
			<path id="SVGID_00000147914388234960537630000015593710329505996936_" d="M3251.715,2.56
				c-31.357,113.378-144.066,225.431-373.205,334.497l-0.344,0.143c-98.52,36.02-236.551,66.546-387.39,99.923
				c-298.568,66.053-647.483,143.242-837.381,295.652c-181.92,146.014-217.508,361.977,78.942,705.429l0.344,0.455
				c191.2,307.068,69.978,482.79-148.316,609.174c-114.3,66.176-255.233,118.702-391.64,169.527
				c-142.693,53.169-280.434,104.494-377.049,167.566c-132.488,86.488-187.291,195.508-69.783,363.101
				c212.015,198.781,231.729,326.217,143.19,414.082c-110.274,109.404-389.76,155.534-673.175,202.301
				c-72.234,11.916-144.716,23.883-214.687,36.935v-7.487c69.595-12.961,141.621-24.851,213.401-36.695
				c282.171-46.559,560.443-92.488,668.987-200.19c85.342-84.676,64.939-208.788-143.333-403.952l-0.279-0.266l-0.218-0.305
				C618.707,2580,675.068,2467.83,811.384,2378.835c97.283-63.5,235.463-114.995,378.598-168.326
				c136.086-50.708,276.681-103.105,390.461-168.975c214.564-124.228,333.717-296.97,145.836-598.876
				c-299.918-347.568-263.035-566.817-77.754-715.533c191.291-153.527,541.164-230.937,840.563-297.172
				c150.437-33.28,288.113-63.734,386.173-99.553c225.177-107.209,336.49-216.995,368.146-327.841H3251.715z"/>
		</defs>
		<clipPath id="SVGID_00000166646682802226433610000003647115489947703693_">
			<use xlink:href="#SVGID_00000147914388234960537630000015593710329505996936_"  style="overflow:visible;"/>
		</clipPath>
		
			<linearGradient id="SVGID_00000170239144050478564850000001623566174750069916_" gradientUnits="userSpaceOnUse" x1="737.0201" y1="756.0643" x2="2606.4355" y2="2744.1038">
			<stop  offset="0" style="stop-color:#0131B8"/>
			<stop  offset="1" style="stop-color:#39D4FF"/>
		</linearGradient>
		
			<rect x="1.221" y="2.56" style="clip-path:url(#SVGID_00000166646682802226433610000003647115489947703693_);fill:url(#SVGID_00000170239144050478564850000001623566174750069916_);" width="3250.494" height="3398.784"/>
	</g>
	<g>
		<defs>
			<path id="SVGID_00000133518063421085315650000006046428429334353316_" d="M3260.991,2.56
				c1.718,133.527-99.089,267.002-359.114,397.828l-0.36,0.162c-96.26,36.539-231.635,67.299-378.961,100.767
				c-279.081,63.41-601.217,136.612-779.488,276.886c-172.148,135.456-209.814,334.36,56.838,649.454l0.416,0.604
				c149.699,271.723,10.624,428.01-215.528,543.862c-109.163,55.929-238.768,102.391-365.783,147.917
				c-174.424,62.533-343.974,123.313-448.423,204.379c-123.316,95.715-155.508,220.398,3.925,411.517
				c258.707,228.762,293.837,371.335,204.038,465.784c-112.43,118.261-422.075,158.897-732.143,199.586
				c-82.972,10.89-165.972,21.786-245.187,34.163v-7.455c78.942-12.312,161.579-23.163,244.187-34
				c308.685-40.513,616.963-80.962,727.533-197.268c86.683-91.176,50.965-230.379-203.836-455.628l-0.39-0.39
				c-163.239-195.573-129.829-323.542-2.919-422.036c105.384-81.793,275.535-142.794,450.572-205.548
				c126.689-45.416,255.954-91.76,364.841-147.534c222.275-113.871,359.072-267.295,212.509-533.615
				c-270.003-319.224-231.012-521.375-55.478-659.493c179.644-141.365,502.69-214.762,782.566-278.353
				c146.959-33.39,282.002-64.078,377.76-100.403c256.392-129.027,355.932-260.23,354.506-391.185H3260.991z"/>
		</defs>
		<clipPath id="SVGID_00000008139206074183736780000012141891505105179034_">
			<use xlink:href="#SVGID_00000133518063421085315650000006046428429334353316_"  style="overflow:visible;"/>
		</clipPath>
		
			<linearGradient id="SVGID_00000098920110938603144420000016358100593276197515_" gradientUnits="userSpaceOnUse" x1="731.4246" y1="761.33" x2="2600.8381" y2="2749.3674">
			<stop  offset="0" style="stop-color:#0131B8"/>
			<stop  offset="1" style="stop-color:#39D4FF"/>
		</linearGradient>
		
			<rect x="1.221" y="2.56" style="clip-path:url(#SVGID_00000008139206074183736780000012141891505105179034_);fill:url(#SVGID_00000098920110938603144420000016358100593276197515_);" width="3261.488" height="3432.908"/>
	</g>
	<g>
		<defs>
			<path id="SVGID_00000056420638391291593150000000912798080047654845_" d="M3251.751,2.56
				c42.357,152.852-37.942,307.853-326.49,461.141l-0.386,0.188c-94.001,37.156-226.814,68.202-370.656,101.826
				c-259.317,60.611-554.645,129.657-721.354,257.717c-162.57,124.897-202.45,306.776,34.604,593.694l0.292,0.351l0.201,0.442
				c113.952,245.067-53.686,383.328-298.564,489.199c-99.313,42.936-211.112,80.462-321.893,117.644
				c-203.801,68.397-404.234,135.67-515.125,232.548c-120.936,105.637-135.034,247.424,70.767,466.55
				c306.659,259.444,357.136,417.075,265.587,517.719c-114.871,126.267-454.683,160.443-790.8,194.236
				c-94.225,9.48-188.164,18.922-276.714,30.344v-7.422c88.358-11.383,182.002-20.799,275.928-30.247
				c334.639-33.643,672.967-67.67,785.858-191.755c88.514-97.306,37.536-251.548-265.074-507.524l-0.315-0.286
				c-209.797-223.314-194.7-368.445-70.351-477.069c112.076-97.91,313.214-165.424,517.729-234.061
				c110.745-37.169,222.502-74.682,321.272-117.378c240.863-104.137,405.945-239.755,294.918-479.082
				c-240.298-291.061-199.057-476.141-33.075-603.661c168.011-129.073,464.219-198.314,724.318-259.106
				c143.43-33.526,275.856-64.488,369.396-101.429C3207.082,305.53,3286.037,152.815,3243.741,2.56H3251.751z"/>
		</defs>
		<clipPath id="SVGID_00000147182281957543378770000008290984208644803998_">
			<use xlink:href="#SVGID_00000056420638391291593150000000912798080047654845_"  style="overflow:visible;"/>
		</clipPath>
		
			<linearGradient id="SVGID_00000030453976761335589610000000922492983720709292_" gradientUnits="userSpaceOnUse" x1="732.0999" y1="760.6964" x2="2601.5134" y2="2748.7339">
			<stop  offset="0" style="stop-color:#0131B8"/>
			<stop  offset="1" style="stop-color:#39D4FF"/>
		</linearGradient>
		
			<rect x="1.221" y="2.56" style="clip-path:url(#SVGID_00000147182281957543378770000008290984208644803998_);fill:url(#SVGID_00000030453976761335589610000000922492983720709292_);" width="3292.887" height="3463.597"/>
	</g>
	<g>
		<defs>
			<path id="SVGID_00000124158214002848450350000012908176729518718627_" d="M3225.504,2.56
				c89.52,171.209,38.221,347.847-276.883,524.466l-0.409,0.208c-91.819,37.916-222.148,69.319-362.513,103.131
				c-239.194,57.63-507.651,122.3-662.798,238.009c-153.287,114.319-195.593,279.23,12.136,538.232l0.38,0.474l0.205,0.578
				c104.891,291.269-275.775,407.952-655.474,524.336c-234.051,71.741-467.761,143.371-585.311,255.353
				c-121.274,115.521-118.485,275.042,136.923,524.427c355.581,290.607,421.458,463.193,327.87,569.681
				c-117.517,133.716-487.842,160.631-849.764,186.93c-105.806,7.688-210.891,15.325-308.646,25.546v-7.403
				c97.65-10.201,202.502-17.818,308.068-25.494c360.351-26.182,729.068-52.981,844.511-184.333
				c90.605-103.092,24.302-272.256-327.078-559.395l-0.25-0.234c-259.58-253.392-261.541-416.322-137.005-534.959
				c118.875-113.228,353.464-185.132,588.398-257.145c375.718-115.163,752.367-230.625,650.717-514.381
				c-210.778-263.1-167.06-431.166-10.341-548.038c156.381-116.637,425.67-181.502,665.607-239.314
				c139.914-33.708,269.821-65.007,361.175-102.696c312.165-175.054,361.724-349.399,271.889-517.979H3225.504z"/>
		</defs>
		<clipPath id="SVGID_00000147179835811194718440000008090859490983204239_">
			<use xlink:href="#SVGID_00000124158214002848450350000012908176729518718627_"  style="overflow:visible;"/>
		</clipPath>
		
			<linearGradient id="SVGID_00000021826398102499469170000001944744325497795207_" gradientUnits="userSpaceOnUse" x1="730.72" y1="761.9938" x2="2600.1362" y2="2750.0344">
			<stop  offset="0" style="stop-color:#0131B8"/>
			<stop  offset="1" style="stop-color:#39D4FF"/>
		</linearGradient>
		
			<rect x="1.221" y="2.56" style="clip-path:url(#SVGID_00000147179835811194718440000008090859490983204239_);fill:url(#SVGID_00000021826398102499469170000001944744325497795207_);" width="3313.803" height="3491.37"/>
	</g>
	<g>
		<defs>
			<path id="SVGID_00000047771789846385941190000000628135912670103197_" d="M3183.215,2.56
				c9.565,12.649,18.451,25.344,26.555,38.091c112.517,177.034,79.41,362.257-237.759,549.693l-0.425,0.208
				c-89.851,38.922-217.794,70.747-354.666,104.8c-218.567,54.377-459.991,114.443-603.538,217.534
				c-144.446,103.741-189.511,251.788-10.77,483.206l0.49,0.636l0.179,0.779c55.62,242.502-309.912,342.354-684.425,444.66
				c-266.59,72.819-537.774,146.904-662.578,273.938c-122.878,125.06-103.352,302.659,204.135,583.616
				c405.202,322.081,486.514,509.505,390.76,621.525c-120.329,140.781-521.677,159.755-909.301,178.086
				c-117.592,5.559-233.914,11.065-340.652,19.87v-7.383c106.699-8.786,222.862-14.286,340.286-19.838
				c385.965-18.24,785.582-37.15,903.771-175.411c92.819-108.592,11.133-292.561-389.757-611.2l-0.201-0.175
				c-311.785-284.827-330.6-465.868-204.583-594.135c126.258-128.508,398.458-202.866,666.042-275.964
				c370.63-101.235,732.358-200.06,679.201-435.29c-181.57-235.489-135.034-386.607,12.854-492.823
				c144.774-103.982,386.942-164.229,606.174-218.775c136.472-33.948,264.044-65.676,353.185-104.241
				c312.168-184.541,345.182-366.205,235.064-539.479c-8.916-14.026-18.782-28.007-29.497-41.929H3183.215z"/>
		</defs>
		<clipPath id="SVGID_00000019663351746201835790000017693010927881254317_">
			<use xlink:href="#SVGID_00000047771789846385941190000000628135912670103197_"  style="overflow:visible;"/>
		</clipPath>
		
			<linearGradient id="SVGID_00000060709456884600597830000002737049430525613724_" gradientUnits="userSpaceOnUse" x1="726.34" y1="766.1104" x2="2595.7534" y2="2754.1477">
			<stop  offset="0" style="stop-color:#0131B8"/>
			<stop  offset="1" style="stop-color:#39D4FF"/>
		</linearGradient>
		
			<rect x="1.221" y="2.56" style="clip-path:url(#SVGID_00000019663351746201835790000017693010927881254317_);fill:url(#SVGID_00000060709456884600597830000002737049430525613724_);" width="3321.066" height="3516.643"/>
	</g>
	<g>
		<defs>
			<path id="SVGID_00000124128767475283269010000017946336485029912503_" d="M3125.558,2.56
				c32.328,32.961,60.329,66.358,82.955,100.137c117.56,175.554,91.741,361.12-213.122,550.96l-0.438,0.227
				c-87.919,40.111-213.745,72.494-347.256,106.858c-197.125,50.741-411.095,105.826-542.985,195.969
				c-136.345,93.196-184.732,224.521-34.513,428.881l0.643,0.877l0.065,1.032c12.253,198.008-337.665,280.99-705.477,368.205
				c-302.087,71.63-616.327,146.144-749.153,288.626c-125.115,134.222-88.621,330.061,272.973,643.493
				c455.232,353.692,552.021,555.81,454.024,673.104c-123.28,147.553-556.255,158.001-969.597,167.962
				c-129.495,3.124-257.054,6.201-372.455,13.422v-7.364c115.417-7.208,242.882-10.279,372.276-13.396
				c411.598-9.922,842.768-20.318,963.84-165.242c95.121-113.845-2.055-312.522-453.043-662.889l-0.156-0.124
				c-365.851-317.12-401.715-516.401-273.545-653.896c134.384-144.151,449.806-218.95,753.017-290.847
				c364.016-86.325,710.325-168.456,699.701-359.633c-152.732-208.372-102.79-342.672,36.981-438.205
				c133.037-90.929,347.688-146.19,545.437-197.093c133.063-34.254,258.483-66.533,345.659-106.241
				c299.964-186.846,325.785-368.841,210.713-540.687c-23.526-35.13-52.919-69.864-87.037-104.137H3125.558z"/>
		</defs>
		<clipPath id="SVGID_00000083089778549157658300000011409598625075119516_">
			<use xlink:href="#SVGID_00000124128767475283269010000017946336485029912503_"  style="overflow:visible;"/>
		</clipPath>
		
			<linearGradient id="SVGID_00000103227827092647356270000017133270357033567920_" gradientUnits="userSpaceOnUse" x1="721.5777" y1="770.5883" x2="2590.9917" y2="2758.6265">
			<stop  offset="0" style="stop-color:#0131B8"/>
			<stop  offset="1" style="stop-color:#39D4FF"/>
		</linearGradient>
		
			<rect x="1.221" y="2.56" style="clip-path:url(#SVGID_00000083089778549157658300000011409598625075119516_);fill:url(#SVGID_00000103227827092647356270000017133270357033567920_);" width="3324.852" height="3539.753"/>
	</g>
	<g>
		<defs>
			<path id="SVGID_00000100369813591674572560000001518301922358158494_" d="M3052.898,2.56
				c62.89,52.442,115.887,106.254,154.706,161.3c123.037,174.469,104.589,360.679-188.843,553.103l-0.435,0.253
				c-86.154,41.604-210.21,74.702-340.536,109.475c-174.372,46.526-360.045,96.072-480.034,172.69
				c-129.56,82.734-182.297,197.586-59.945,375.737l0.818,1.201l-0.224,1.403c-25.254,157.365-358.042,223.768-716.549,295.288
				c-340.958,68.02-705.328,140.722-847.027,299.353c-127.689,142.949-73.903,357.068,343.107,703.435
				c505.849,385.569,618.201,602.33,517.92,724.688c-126.349,154.144-591.658,155.495-1030.76,156.761
				c-141.456,0.403-280.188,0.805-403.877,6.299v-7.357c123.751-5.474,262.454-5.883,403.88-6.286
				c437.306-1.266,900.7-2.61,1024.779-153.982c97.439-118.891-15.257-332.191-516.797-714.442l-0.127-0.091
				c-421.332-349.964-474.573-567.551-343.922-713.825c143.391-160.521,509.086-233.483,851.284-301.75
				c354.75-70.773,684.114-136.501,710.279-287.892c-124.433-182.093-70.036-299.762,62.939-384.679
				c121.004-77.273,307.279-126.975,482.225-173.651c129.849-34.65,253.45-67.631,338.912-108.845
				c288.554-189.307,307.077-371.945,186.612-542.758c-39.809-56.449-94.744-111.65-160.079-165.43H3052.898z"/>
		</defs>
		<clipPath id="SVGID_00000076606059677855364150000004525441305894406792_">
			<use xlink:href="#SVGID_00000100369813591674572560000001518301922358158494_"  style="overflow:visible;"/>
		</clipPath>
		
			<linearGradient id="SVGID_00000116218953307727801800000000750088413575766437_" gradientUnits="userSpaceOnUse" x1="717.4922" y1="774.4315" x2="2586.9089" y2="2762.4724">
			<stop  offset="0" style="stop-color:#0131B8"/>
			<stop  offset="1" style="stop-color:#39D4FF"/>
		</linearGradient>
		
			<rect x="1.221" y="2.56" style="clip-path:url(#SVGID_00000076606059677855364150000004525441305894406792_);fill:url(#SVGID_00000116218953307727801800000000750088413575766437_);" width="3329.42" height="3560.987"/>
	</g>
	<g>
		<defs>
			<path id="SVGID_00000125577330971604835790000001695124542429574052_" d="M2965.355,2.56
				c100.248,70.845,184.605,144.826,241.538,221.515c129.004,173.787,118.066,360.977-164.748,556.2l-0.428,0.253
				c-84.79,43.591-207.57,77.598-334.941,112.871c-149.183,41.312-304.714,84.377-411.991,146.391
				c-125.465,72.54-184.778,171.417-89.351,324.912l1.026,1.662l-0.822,1.74c-56.611,120.475-369.786,170.924-715.149,226.547
				c-383.481,61.76-806.848,129.956-958.441,305.776c-130.436,151.274-58.988,383.705,414.556,763.358
				c556.856,417.588,684.847,648.896,582.252,776.117c-129.54,160.618-627.886,152.345-1092.835,144.625
				c-153.453-2.545-303.253-5.032-434.799-1.383v-7.357c131.686-3.649,281.496-1.162,434.946,1.39
				c463.102,7.695,959.476,15.929,1086.669-141.781c99.793-123.741-28.52-351.568-580.983-765.864l-0.091-0.072
				c-477.943-383.179-548.901-619.097-415.578-773.734c153.427-177.943,578.255-246.372,963.045-308.34
				c341.614-55.026,651.512-104.962,708.614-220.638c-96.897-157.307-35.792-258.795,93.03-333.256
				c108.163-62.533,264.168-105.735,413.799-147.17c126.884-35.137,249.187-69.014,333.22-112.157
				c278.032-192.008,289.146-375.607,162.81-545.797c-58.03-78.169-144.917-153.605-248.249-225.807H2965.355z"/>
		</defs>
		<clipPath id="SVGID_00000179619089126438591330000012675003138298866860_">
			<use xlink:href="#SVGID_00000125577330971604835790000001695124542429574052_"  style="overflow:visible;"/>
		</clipPath>
		
			<linearGradient id="SVGID_00000101817618734796916420000002567737012628388542_" gradientUnits="userSpaceOnUse" x1="709.6595" y1="781.7939" x2="2579.075" y2="2769.8335">
			<stop  offset="0" style="stop-color:#0131B8"/>
			<stop  offset="1" style="stop-color:#39D4FF"/>
		</linearGradient>
		
			<rect x="1.221" y="2.56" style="clip-path:url(#SVGID_00000179619089126438591330000012675003138298866860_);fill:url(#SVGID_00000101817618734796916420000002567737012628388542_);" width="3334.677" height="3597.962"/>
	</g>
	<g>
		<defs>
			<path id="SVGID_00000060015940927142233750000008994676531757814181_" d="M2862.79,2.56
				c143.469,87.962,266.191,181.878,343.484,280.834c135.482,173.45,132.212,361.919-140.758,560.187l-0.403,0.266
				c-83.933,46.267-206.336,81.449-331.279,117.358c-118.245,33.987-238.791,68.637-330.558,113.813
				c-128.215,63.117-200.216,147.034-130.183,279.347l1.195,2.24l-1.744,1.87c-81.28,87.397-371.338,122.858-698.367,162.82
				c-429.621,52.507-923.34,112.852-1086.065,307.308C354.835,1987.87,444.316,2238.6,975.34,2651.805
				c608.106,449.712,751.789,695.461,646.857,827.404c-132.8,166.989-664.98,148.599-1155.874,131.618
				c-165.414-5.714-326.13-11.266-465.102-9.532v-7.351c139.183-1.747,299.935,3.812,465.381,9.526
				c489.017,16.909,1019.149,35.228,1149.533-128.722c102.16-128.456-41.815-370.731-645.506-817.163l-0.081-0.052
				c-535.456-416.653-624.493-670.889-488.378-833.547c164.674-196.781,660.026-257.327,1091.065-310.009
				c323.23-39.507,610.145-74.579,691.87-158.605c-70.66-136.021,3.295-222.216,134.715-286.905
				c92.413-45.494,213.281-80.234,331.847-114.313c124.397-35.76,246.288-70.799,329.467-116.598
				c268.256-194.937,271.772-379.822,139.047-549.739C3121.662,187.289,2995.7,91.853,2848.591,2.56H2862.79z"/>
		</defs>
		<clipPath id="SVGID_00000018949971470079553850000003739813227952937648_">
			<use xlink:href="#SVGID_00000060015940927142233750000008994676531757814181_"  style="overflow:visible;"/>
		</clipPath>
		
			<linearGradient id="SVGID_00000163059412503423410230000002727481590001253038_" gradientUnits="userSpaceOnUse" x1="699.8174" y1="791.0508" x2="2569.2317" y2="2779.0889">
			<stop  offset="0" style="stop-color:#0131B8"/>
			<stop  offset="1" style="stop-color:#39D4FF"/>
		</linearGradient>
		
			<rect x="1.221" y="2.56" style="clip-path:url(#SVGID_00000018949971470079553850000003739813227952937648_);fill:url(#SVGID_00000163059412503423410230000002727481590001253038_);" width="3340.534" height="3643.637"/>
	</g>
	<g>
		<defs>
			<path id="SVGID_00000165924283098534682370000016312634878722379163_" d="M2744.853,2.56
				c191.469,103.494,360.412,217.132,460.715,339.211c142.527,173.463,147.157,363.536-116.686,565.109l-0.351,0.253
				c-84.095,50.117-207.719,86.884-331.094,123.56c-65.507,19.474-130.962,38.942-190.362,60.377
				c-159.342,57.507-274.408,129.06-226.259,253.106l1.091,2.825l-2.679,1.584c-98.576,58.462-360.75,80.247-662.425,105.326
				c-479.115,39.831-1058.208,87.968-1233.648,303.035c-136.157,166.917-28.302,435.939,560.895,882.859
				c659.642,481.92,819.06,742.078,711.789,878.612c-136.125,173.261-702.958,144.255-1219.923,117.806
				c-177.294-9.072-348.711-17.838-494.696-18.059v-7.357c146.183,0.221,317.707,8.993,495.121,18.072
				c515.021,26.357,1079.724,55.247,1213.411-114.904c104.511-133.021-55.186-389.679-710.357-868.333l-0.055-0.039
				c-593.674-450.316-701.139-722.864-562.197-893.197c177.492-217.573,758.393-265.873,1239.028-305.821
				c298.048-24.779,557.382-46.344,656.415-102.728c-47.481-127.93,69.699-201.171,231.823-259.691
				c59.471-21.461,125.112-40.974,190.791-60.5c122.849-36.526,245.925-73.118,329.182-122.709
				c259.197-198.138,254.895-384.64,115.225-554.628C3097.928,222.582,2924.862,107.34,2729.243,2.56H2744.853z"/>
		</defs>
		<clipPath id="SVGID_00000039852249465724406970000013370589684641300913_">
			<use xlink:href="#SVGID_00000165924283098534682370000016312634878722379163_"  style="overflow:visible;"/>
		</clipPath>
		
			<linearGradient id="SVGID_00000090291816774949293480000002954764948697209782_" gradientUnits="userSpaceOnUse" x1="691.3788" y1="798.9836" x2="2560.7939" y2="2787.0229">
			<stop  offset="0" style="stop-color:#0131B8"/>
			<stop  offset="1" style="stop-color:#39D4FF"/>
		</linearGradient>
		
			<rect x="1.221" y="2.56" style="clip-path:url(#SVGID_00000039852249465724406970000013370589684641300913_);fill:url(#SVGID_00000090291816774949293480000002954764948697209782_);" width="3351.505" height="3689.118"/>
	</g>
	<g>
		<defs>
			<path id="SVGID_00000069368783686967010550000015299008600183317129_" d="M2610.81,2.56
				c243.067,117.079,467.391,250.262,593.843,396.608c150.18,173.813,163.014,365.841-92.381,571.025l-0.302,0.221
				c-86.192,56.13-214.262,95.02-337.935,132.573c-196.713,59.747-382.198,116.079-365.477,231.411l0.445,3.052l-3.039,0.954
				c-107.352,33.955-335.272,43.916-602.109,55.559c-530.894,23.182-1216.303,53.111-1406.529,291.516
				c-139.069,174.287-12.523,461.582,635.454,942.346c711.37,514.213,886.554,788.702,776.949,929.697
				c-139.537,179.508-741.838,139.43-1284.96,103.274c-189.112-12.591-371.046-24.695-523.547-26.903v-7.364
				c152.758,2.201,334.834,14.318,524.092,26.916c541.164,36.02,1141.273,75.955,1278.317-100.332
				c106.874-137.482-68.582-408.471-775.465-919.431l-0.039-0.026c-652.48-484.102-778.669-774.942-636.856-952.665
				c192.378-241.106,879.8-271.126,1412.253-294.366c263.795-11.513,489.443-21.377,597.093-54.319
				c-13.971-119.352,172.953-176.151,371.13-236.34c123.053-37.37,250.493-76.072,335.737-131.521
				c250.94-201.671,238.557-390.127,91.299-560.557c-128.047-148.203-357.552-283.055-605.09-401.328H2610.81z"/>
		</defs>
		<clipPath id="SVGID_00000128469377626366467720000005332955528500096700_">
			<use xlink:href="#SVGID_00000069368783686967010550000015299008600183317129_"  style="overflow:visible;"/>
		</clipPath>
		
			<linearGradient id="SVGID_00000000207344234292228020000010303921439503723160_" gradientUnits="userSpaceOnUse" x1="684.0275" y1="805.8964" x2="2553.4431" y2="2793.9363">
			<stop  offset="0" style="stop-color:#0131B8"/>
			<stop  offset="1" style="stop-color:#39D4FF"/>
		</linearGradient>
		
			<rect x="1.221" y="2.56" style="clip-path:url(#SVGID_00000128469377626366467720000005332955528500096700_);fill:url(#SVGID_00000000207344234292228020000010303921439503723160_);" width="3366.447" height="3734.469"/>
	</g>
	<g>
		<defs>
			<path id="SVGID_00000145740132705161374390000017170126379203862697_" d="M2459.507,2.56
				c296.642,128.241,587.379,280.827,743.832,453.05c158.498,174.469,179.868,368.763-67.689,577.882l-0.25,0.182
				c-92.829,66.91-233.363,108.651-361.565,146.735c-145.037,43.072-274.184,81.429-297.921,145.157l-0.782,2.098l-2.279,0.305
				c-105.595,14.461-290.301,15.072-509.04,15.779c-581.84,1.909-1405,4.61-1613.08,270.457
				c-141.969,181.398,3.542,486.939,710.77,1001.633c763.283,546.563,954.285,835.332,842.342,980.704
				c-143.014,185.709-781.64,134.066-1351.026,88.027c-200.823-16.247-393.017-31.786-551.596-35.981v-7.364
				c158.836,4.195,351.231,19.74,552.258,36.007c567.385,45.89,1203.748,97.345,1344.233-85.085
				c109.225-141.833-82.027-427.088-840.79-970.412c-711.776-518.005-856.959-827.111-712.283-1011.97
				c210.343-268.749,1035.727-271.451,1619.145-273.36c216.947-0.714,400.364-1.318,505.777-15.416
				c26.968-65.903,156.609-104.423,302.048-147.625c127.501-37.864,267.272-79.384,359.052-145.456
				c243.269-205.521,222.437-396.263,66.939-567.434C3039.262,286.18,2742.025,131.834,2440.815,2.56H2459.507z"/>
		</defs>
		<clipPath id="SVGID_00000114057363804786306840000000577762586291910287_">
			<use xlink:href="#SVGID_00000145740132705161374390000017170126379203862697_"  style="overflow:visible;"/>
		</clipPath>
		
			<linearGradient id="SVGID_00000129176893733115613590000008383654954429477779_" gradientUnits="userSpaceOnUse" x1="676.8665" y1="812.629" x2="2546.2825" y2="2800.6692">
			<stop  offset="0" style="stop-color:#0131B8"/>
			<stop  offset="1" style="stop-color:#39D4FF"/>
		</linearGradient>
		
			<rect x="1.221" y="2.56" style="clip-path:url(#SVGID_00000114057363804786306840000000577762586291910287_);fill:url(#SVGID_00000129176893733115613590000008383654954429477779_);" width="3381.986" height="3779.691"/>
	</g>
	<g>
		<defs>
			<path id="SVGID_00000135660106378657513740000000874462197947664555_" d="M2289.317,2.56
				c349.718,136.235,720.838,308.152,912.155,508.485c167.531,175.43,197.859,372.341-42.458,585.752l-0.14,0.104
				c-114.839,93.15-297.077,136.164-441.656,170.281c-72.8,17.182-136.021,32.104-175.761,49.909l-0.753,0.351h-0.815
				c-88.384,0.987-216.771-4.065-368.344-10.033c-622.58-24.513-1637.103-64.462-1868.053,235.697
				c-144.878,188.281,19.861,512.063,786.731,1060.75c815.352,578.96,1022.185,881.963,907.921,1031.6
				c-146.553,191.924-822.368,128.261-1418.097,72.137c-212.414-20.007-414.624-39.059-578.824-45.228v-7.37
				c164.43,6.169,366.89,25.24,579.57,45.273c593.716,55.936,1267.232,119.384,1411.214-69.169
				c111.576-146.105-95.507-445.602-906.31-1021.334c-771.445-551.934-935.882-879.294-788.329-1071.049
				c233.353-303.282,1250.391-263.236,1874.508-238.658c151.034,5.948,279.022,10.987,367.124,10.033
				c40.513-17.987,103.702-32.909,176.404-50.065c143.767-33.929,324.97-76.696,438.436-168.644
				c236.184-209.736,206.495-403.121,42.026-575.337c-193.57-202.69-572.918-376.49-926.934-513.485H2289.317z"/>
		</defs>
		<clipPath id="SVGID_00000152971210665203864870000011649615034325029817_">
			<use xlink:href="#SVGID_00000135660106378657513740000000874462197947664555_"  style="overflow:visible;"/>
		</clipPath>
		
			<linearGradient id="SVGID_00000018214745459297053830000009611283475695488913_" gradientUnits="userSpaceOnUse" x1="669.8859" y1="819.1973" x2="2539.2996" y2="2807.2351">
			<stop  offset="0" style="stop-color:#0131B8"/>
			<stop  offset="1" style="stop-color:#39D4FF"/>
		</linearGradient>
		
			<rect x="1.221" y="2.56" style="clip-path:url(#SVGID_00000152971210665203864870000011649615034325029817_);fill:url(#SVGID_00000018214745459297053830000009611283475695488913_);" width="3398.109" height="3824.821"/>
	</g>
	<g>
		<defs>
			<path id="SVGID_00000080190073294386780340000001012167955189129349_" d="M2097.805,2.56
				c398.052,139.845,868.456,331.185,1101.085,562.908c177.352,176.664,217.129,376.536-16.503,594.622
				c-66.186,61.78-150.041,100.903-239.934,123.793c-109.875,27.981-228.775,31.715-335.399,22.981
				c-42.345-3.468-92.128-7.857-147.657-12.747c-614.925-54.267-1939.083-171.086-2203.709,178.067
				C107.913,1667.16,292.1,2009.15,1118.952,2591.87c867.55,611.415,1090.283,928.612,973.681,1082.445
				c-150.154,198.125-864.07,121.969-1486.234,55.598c-223.901-23.883-435.9-46.488-605.178-54.611v-7.364
				c169.631,8.123,381.861,30.753,606.019,54.669c620.123,66.156,1331.678,142.047,1479.225-52.617
				c113.92-150.313-109.033-463.985-972.006-1072.166C283.032,2011.871,99.112,1666.29,249.515,1467.853
				c267.188-352.536,1594.304-235.444,2210.602-181.067c55.231,4.87,104.748,9.234,147.605,12.747
				c105.868,8.663,223.879,4.968,332.789-22.766c88.696-22.585,171.388-61.13,236.551-121.962
				c229.593-214.314,190.553-410.673,16.344-584.207C2957.975,336.083,2476.841,142.724,2075.435,2.56H2097.805z"/>
		</defs>
		<clipPath id="SVGID_00000091009921732490865430000007052251287082055079_">
			<use xlink:href="#SVGID_00000080190073294386780340000001012167955189129349_"  style="overflow:visible;"/>
		</clipPath>
		
			<linearGradient id="SVGID_00000146498961749362284900000007655632873965983152_" gradientUnits="userSpaceOnUse" x1="663.0691" y1="825.6036" x2="2532.4829" y2="2813.6416">
			<stop  offset="0" style="stop-color:#0131B8"/>
			<stop  offset="1" style="stop-color:#39D4FF"/>
		</linearGradient>
		
			<rect x="1.221" y="2.56" style="clip-path:url(#SVGID_00000091009921732490865430000007052251287082055079_);fill:url(#SVGID_00000146498961749362284900000007655632873965983152_);" width="3414.798" height="3869.88"/>
	</g>
	<g>
		<defs>
			<path id="SVGID_00000057857015339537172720000016125498077226109082_" d="M1857.92,9000
				c-353.779-76.523-712.727-181.992-920.697-363.737C674.13,8406.342,653.078,8053.3,1191.94,7479.944
				c635.905-676.623,699.169-1019.172,505.508-1188.414c-213.252-186.359-738.299-160.622-1151.91-140.342l-32.809,1.607
				c-159.583,7.763-340.688-19.958-511.508-81.442v7.857c171.044,61.167,352.179,88.702,511.901,80.926l32.806-1.607
				c412.218-20.201,935.509-45.854,1146.413,138.462c190.395,166.388,125.978,505.521-506.063,1178.024
				c-542.723,577.47-520.508,933.941-254.165,1166.699c202.801,177.226,547.391,282.126,891.414,358.286H1857.92z"/>
		</defs>
		<clipPath id="SVGID_00000039849941410076195380000007941160137395073160_">
			<use xlink:href="#SVGID_00000057857015339537172720000016125498077226109082_"  style="overflow:visible;"/>
		</clipPath>
		
			<linearGradient id="SVGID_00000021102003083285968020000016141435059646496909_" gradientUnits="userSpaceOnUse" x1="493.2864" y1="8017.3242" x2="2362.7034" y2="6029.1509">
			<stop  offset="0" style="stop-color:#0131B8"/>
			<stop  offset="1" style="stop-color:#39D4FF"/>
		</linearGradient>
		
			<rect x="1.221" y="6071.353" style="clip-path:url(#SVGID_00000039849941410076195380000007941160137395073160_);fill:url(#SVGID_00000021102003083285968020000016141435059646496909_);" width="1889.888" height="2928.647"/>
	</g>
	<g>
		<defs>
			<path id="SVGID_00000009552433613707981430000001890458871597072038_" d="M2208.998,9000
				c-419.971-80.423-922.418-184.125-1182.248-409.695c-252.804-219.47-275.577-555.356,232.729-1099.806l0.029-0.026
				c575.479-629.136,605.142-950.733,407.205-1119.088c-191.073-162.514-594.272-180.859-922.366-195.788
				c-71.919-3.266-140.219-6.373-202.054-10.821c-124.202-30.682-333.37-82.799-541.073-169.274v8.02
				c207.414,86.017,415.734,137.901,539.518,168.466l0.666,0.11c61.689,4.438,130.316,7.562,202.573,10.848
				c326.912,14.867,728.643,33.153,917.687,193.943c194.671,165.583,163.768,483.784-407.841,1108.695
				c-512.18,548.586-488.254,887.875-232.184,1110.176c253.635,220.199,735.396,324.6,1148.306,404.24H2208.998z"/>
		</defs>
		<clipPath id="SVGID_00000170958665812449056980000003297173548789762980_">
			<use xlink:href="#SVGID_00000009552433613707981430000001890458871597072038_"  style="overflow:visible;"/>
		</clipPath>
		
			<linearGradient id="SVGID_00000100359468396276310920000012680295430493185184_" gradientUnits="userSpaceOnUse" x1="558.72" y1="8078.8501" x2="2428.137" y2="6090.6768">
			<stop  offset="0" style="stop-color:#0131B8"/>
			<stop  offset="1" style="stop-color:#39D4FF"/>
		</linearGradient>
		
			<rect x="1.221" y="5995.501" style="clip-path:url(#SVGID_00000170958665812449056980000003297173548789762980_);fill:url(#SVGID_00000100359468396276310920000012680295430493185184_);" width="2207.777" height="3004.498"/>
	</g>
	<g>
		<defs>
			<path id="SVGID_00000098205764291214098870000000243333205482807484_" d="M2558.397,9000
				c-78.738-17.25-166.336-34.254-258.902-52.222c-412.244-80.017-923.028-179.163-1183.248-403.412
				c-242.538-209.019-267.045-527.739,210.781-1043.312l0.049-0.048c515.521-581.311,514.531-881.976,312.711-1048.396
				c-171.359-141.303-487.511-184.856-754.52-221.635c-120.167-16.546-230.366-31.734-312.672-53.819
				c-49.039-57.225-187.46-109.592-353.757-172.498c-69.195-26.172-143.242-54.189-217.619-85.102v8.006
				c73.458,30.458,146.511,58.098,214.853,83.949c166.161,62.854,304.34,115.134,351.386,171.193l0.776,0.916l1.175,0.321
				c82.767,22.354,193.732,37.64,314.789,54.309c265.996,36.633,580.947,80.017,750.611,219.931
				c198.554,163.729,198.167,461.034-313.519,1038.032c-481.615,519.687-455.93,841.8-210.129,1053.626
				c261.791,225.609,773.686,324.968,1186.826,405.156c79.637,15.461,155.599,30.212,225.363,45.004H2558.397z"/>
		</defs>
		<clipPath id="SVGID_00000000904741675112582630000014665617293363442305_">
			<use xlink:href="#SVGID_00000098205764291214098870000000243333205482807484_"  style="overflow:visible;"/>
		</clipPath>
		
			<linearGradient id="SVGID_00000070806336636444486240000013923397210034511257_" gradientUnits="userSpaceOnUse" x1="632.4944" y1="8148.2139" x2="2501.9124" y2="6160.0396">
			<stop  offset="0" style="stop-color:#0131B8"/>
			<stop  offset="1" style="stop-color:#39D4FF"/>
		</linearGradient>
		
			<rect x="1.221" y="5919.556" style="clip-path:url(#SVGID_00000000904741675112582630000014665617293363442305_);fill:url(#SVGID_00000070806336636444486240000013923397210034511257_);" width="2557.176" height="3080.444"/>
	</g>
	<g>
		<defs>
			<path id="SVGID_00000103985000618519642040000014256519734244245181_" d="M2810.26,9000
				c-15.776-5.98-31.945-11.936-48.627-17.854l-0.143-0.052c-110.183-34.513-261.944-64.529-430.105-97.79
				c-393.559-77.841-877.183-173.511-1125.624-385.854c-232.301-198.541-258.555-500.109,188.823-986.824l0.084-0.101
				c456.309-533.297,427.907-813.011,222.664-976.301c-154.924-123.261-410.637-179.463-634.094-228.567
				c-159.855-35.13-303.133-66.624-380.198-116.242c3.597-117.995-207.723-195.615-455.108-286.454
				c-47.978-17.617-97.322-35.741-146.712-54.744v7.916c48.491,18.624,96.91,36.406,144.011,53.702
				c246.064,90.358,456.069,167.482,450.137,281.347l-0.104,2.055l1.776,1.162c77.799,51.02,222.71,82.868,384.507,118.417
				c222.616,48.919,477.362,104.907,630.928,227.089c201.905,160.648,228.833,437.027-223.625,965.843
				c-451.199,490.885-423.757,795.861-188.161,997.221c249.95,213.628,734.695,309.509,1129.156,387.532
				c167.911,33.212,319.445,63.186,429.29,97.602c10.205,3.617,20.175,7.25,30.036,10.896H2810.26z"/>
		</defs>
		<clipPath id="SVGID_00000183963839696151034130000015813756263537618876_">
			<use xlink:href="#SVGID_00000103985000618519642040000014256519734244245181_"  style="overflow:visible;"/>
		</clipPath>
		
			<linearGradient id="SVGID_00000139279978245819712690000013550545065435091883_" gradientUnits="userSpaceOnUse" x1="681.7805" y1="8194.5586" x2="2551.1978" y2="6206.3853">
			<stop  offset="0" style="stop-color:#0131B8"/>
			<stop  offset="1" style="stop-color:#39D4FF"/>
		</linearGradient>
		
			<rect x="1.221" y="5849.218" style="clip-path:url(#SVGID_00000183963839696151034130000015813756263537618876_);fill:url(#SVGID_00000139279978245819712690000013550545065435091883_);" width="2809.039" height="3150.782"/>
	</g>
	<g>
		<defs>
			<path id="SVGID_00000111150084817124146060000012661873531650178999_" d="M2970.648,9000
				c-53.698-27.604-115.348-54.679-185.645-81.192l-0.176-0.064c-107.874-34.719-256.84-64.773-421.543-98.008
				c-374.805-75.624-831.365-167.748-1068.026-368.143c-222.103-188.063-250.129-472.492,166.872-930.421l0.127-0.152
				c398.286-485.336,345.864-744.088,137.768-902.872c-141.82-108.215-355.925-169.472-548.508-224.561
				c-195.401-55.9-368.507-105.43-419.306-190.505c53.835-117.186-40.452-196.255-197.554-264.99
				c-85.959-37.611-190.999-72.221-300.73-108.361c-43.789-14.429-88.332-29.101-132.706-44.312v7.795
				c43.572,14.913,87.274,29.309,130.258,43.471c109.43,36.046,214.181,70.563,300.019,108.118
				c153.774,67.283,246.064,144.128,192.953,256.996l-0.792,1.685l0.925,1.62c51.137,88.654,226.596,138.846,424.767,195.534
				c191.908,54.9,405.273,115.949,545.953,223.288c204.713,156.203,255.532,411.66-138.933,892.404
				c-420.803,462.102-391.572,749.922-166.154,940.801c238.168,201.657,695.805,294.009,1071.497,369.805
				c164.463,33.186,313.204,63.199,420.621,97.768c64.465,24.314,121.55,49.098,171.865,74.296H2970.648z"/>
		</defs>
		<clipPath id="SVGID_00000113339888489979782420000011006977377655430569_">
			<use xlink:href="#SVGID_00000111150084817124146060000012661873531650178999_"  style="overflow:visible;"/>
		</clipPath>
		
			<linearGradient id="SVGID_00000053507617765621559360000008413667184476640390_" gradientUnits="userSpaceOnUse" x1="708.6756" y1="8219.8438" x2="2578.0928" y2="6231.6704">
			<stop  offset="0" style="stop-color:#0131B8"/>
			<stop  offset="1" style="stop-color:#39D4FF"/>
		</linearGradient>
		
			<rect x="1.221" y="5786.418" style="clip-path:url(#SVGID_00000113339888489979782420000011006977377655430569_);fill:url(#SVGID_00000053507617765621559360000008413667184476640390_);" width="2969.427" height="3213.582"/>
	</g>
	<g>
		<defs>
			<path id="SVGID_00000108303003837413445470000018313350728107652281_" d="M3086.548,9000
				c-69.666-49.442-161.209-97.68-278.162-144.524l-0.23-0.081c-105.55-34.961-251.73-65.091-412.975-98.313
				c-355.948-73.352-785.507-161.868-1010.418-350.309c-211.947-177.569-241.798-444.857,144.917-874.053l0.159-0.198
				c342.019-437.932,268.967-675.685,58.559-828.488c-131.738-95.67-317.282-157.628-488.16-214.69
				c-229.6-76.683-432.549-144.469-439.657-272.044c85.449-120.541,50.315-204.992-50.757-272.048
				c-104.994-69.653-281.642-120.121-467.361-173.193c-46.845-13.377-94.257-26.932-141.242-40.991v7.705
				c46.283,13.831,92.955,27.169,139.076,40.345c185.112,52.89,361.188,103.199,465.209,172.206
				c97.52,64.702,131.229,146.264,48.023,262.879l-0.711,1l0.055,1.256c6.127,133.313,211.95,202.054,444.881,279.844
				c170.342,56.887,355.295,118.65,486.047,213.606c206.983,150.306,278.334,384.844-59.945,818.053
				c-390.439,433.354-359.373,704.019-144.102,884.375c226.411,189.692,657.022,278.424,1013.831,351.954
				c160.992,33.172,306.938,63.254,411.961,98.023c111.676,44.737,199.934,90.683,267.902,137.687H3086.548z"/>
		</defs>
		<clipPath id="SVGID_00000156587404111902455250000011229490645888536199_">
			<use xlink:href="#SVGID_00000108303003837413445470000018313350728107652281_"  style="overflow:visible;"/>
		</clipPath>
		
			<linearGradient id="SVGID_00000046314479137386223570000014572397302790250938_" gradientUnits="userSpaceOnUse" x1="725.6208" y1="8235.7783" x2="2595.0391" y2="6247.6035">
			<stop  offset="0" style="stop-color:#0131B8"/>
			<stop  offset="1" style="stop-color:#39D4FF"/>
		</linearGradient>
		
			<rect x="1.221" y="5731.067" style="clip-path:url(#SVGID_00000156587404111902455250000011229490645888536199_);fill:url(#SVGID_00000046314479137386223570000014572397302790250938_);" width="3085.327" height="3268.933"/>
	</g>
	<g>
		<defs>
			<path id="SVGID_00000013871749662331461550000004605353480312089765_" d="M3168.094,9000
				c-69.114-71.16-178.053-140.599-336.344-207.843l-0.26-0.107c-103.141-35.23-246.603-65.461-404.419-98.715
				c-336.971-71.007-739.582-155.846-952.791-332.314c-201.859-167.067-233.554-417.231,122.943-817.748l0.218-0.27
				c288.197-391.728,197.521-608.538-14.877-753.835c-124.212-84.965-290.074-145.196-445.832-201.758
				c-264.038-95.884-498.82-181.148-447.826-357.445c124.375-142.92,111.29-240.528,20.539-314.133
				c-107.021-86.793-322.928-139.167-547.531-193.648c-53.527-12.984-107.55-26.084-160.693-39.802v7.614
				c52.559,13.539,105.943,26.49,158.839,39.318c223.729,54.264,438.803,106.433,544.482,192.148
				c87.316,70.815,99.329,165.294-22.016,304.425l-0.529,0.598l-0.227,0.763c-53.76,183.271,184.401,269.756,452.287,367.029
				c155.281,56.384,320.639,116.43,444.089,200.889c208.895,142.897,297.753,356.558,13.166,743.455
				c-360.127,404.663-327.175,658.162-122.001,827.988c214.674,177.668,618.308,262.727,956.135,333.909
				c157.514,33.195,300.701,63.361,403.455,98.459c153.44,65.198,259.976,132.345,328.464,201.024H3168.094z"/>
		</defs>
		<clipPath id="SVGID_00000148621307350867739160000009948698091066711211_">
			<use xlink:href="#SVGID_00000013871749662331461550000004605353480312089765_"  style="overflow:visible;"/>
		</clipPath>
		
			<linearGradient id="SVGID_00000041269841640429372400000009161448287201415582_" gradientUnits="userSpaceOnUse" x1="735.1125" y1="8244.7041" x2="2604.5303" y2="6256.5298">
			<stop  offset="0" style="stop-color:#0131B8"/>
			<stop  offset="1" style="stop-color:#39D4FF"/>
		</linearGradient>
		
			<rect x="1.221" y="5682.382" style="clip-path:url(#SVGID_00000148621307350867739160000009948698091066711211_);fill:url(#SVGID_00000041269841640429372400000009161448287201415582_);" width="3166.873" height="3317.618"/>
	</g>
	<g>
		<defs>
			<path id="SVGID_00000104669124973926845600000012832324944478445454_" d="M3221.725,9000
				c-55.543-92.54-171.167-183.245-366.591-271.171l-0.312-0.134c-100.848-35.598-241.567-65.955-395.877-99.244
				c-317.86-68.575-693.604-149.647-895.122-314.087c-191.849-156.561-225.463-389.618,100.949-761.55l0.276-0.36
				c237.635-347.672,131.466-543.706-83.15-680.107c-118.758-75.478-270.649-132.465-415.624-186.842
				c-96.556-36.225-190.051-71.306-268.379-109.829c-165.027-81.163-262.993-177.911-180.55-334.347
				c166.989-169.859,170.943-282.191,82.582-363.049c-108.485-99.264-357.198-149.541-612.665-201.174
				c-62.263-12.584-124.933-25.253-186.041-38.725v7.555c60.63,13.341,122.748,25.903,184.472,38.377
				c254.398,51.419,502.086,101.485,608.983,199.297c85.049,77.826,80.26,186.904-83.254,353.068l-0.383,0.386l-0.25,0.48
				c-85.66,161.937,14.503,261.493,183.648,344.682c78.721,38.714,172.359,73.851,269.067,110.13
				c144.634,54.257,296.172,111.105,414.205,186.119c210.999,134.105,315.237,327.065,81.114,669.74
				c-329.993,376.091-295.126,612.463-99.936,771.748c202.986,165.635,579.716,246.921,898.398,315.675
				c154.004,33.221,294.434,63.523,394.809,98.933c191.021,85.972,304.857,174.397,360.416,264.428H3221.725z"/>
		</defs>
		<clipPath id="SVGID_00000021828857939171588350000007833915159847448755_">
			<use xlink:href="#SVGID_00000104669124973926845600000012832324944478445454_"  style="overflow:visible;"/>
		</clipPath>
		
			<linearGradient id="SVGID_00000133488944810467220080000007229187354034381446_" gradientUnits="userSpaceOnUse" x1="738.6133" y1="8247.999" x2="2608.0298" y2="6259.8267">
			<stop  offset="0" style="stop-color:#0131B8"/>
			<stop  offset="1" style="stop-color:#39D4FF"/>
		</linearGradient>
		
			<rect x="1.221" y="5639.381" style="clip-path:url(#SVGID_00000021828857939171588350000007833915159847448755_);fill:url(#SVGID_00000133488944810467220080000007229187354034381446_);" width="3220.504" height="3360.619"/>
	</g>
	<g>
		<defs>
			<path id="SVGID_00000063610436360528538260000014487151890807942562_" d="M3251.715,9000
				c-31.357-113.378-144.066-225.434-373.205-334.5l-0.344-0.143c-98.52-36.017-236.551-66.553-387.39-99.927
				c-298.568-66.046-647.483-143.238-837.381-295.648c-181.92-146.014-217.508-361.974,78.942-705.429l0.344-0.455
				c191.2-307.064,69.978-482.787-148.316-609.174c-114.3-66.182-255.233-118.699-391.64-169.527
				c-142.693-53.169-280.434-104.491-377.049-167.566c-132.488-86.485-187.291-195.505-69.783-363.101
				c212.015-198.781,231.729-326.22,143.19-414.079c-110.274-109.407-389.76-155.534-673.175-202.3
				c-72.234-11.916-144.716-23.883-214.687-36.938v7.49c69.595,12.961,141.621,24.848,213.401,36.692
				c282.171,46.562,560.443,92.488,668.987,200.184c85.342,84.683,64.939,208.794-143.333,403.958l-0.279,0.266l-0.218,0.305
				c-121.073,172.45-64.712,284.623,71.604,373.614c97.283,63.504,235.463,114.995,378.598,168.33
				c136.086,50.705,276.681,103.102,390.461,168.972c214.564,124.229,333.717,296.97,145.836,598.875
				c-299.918,347.572-263.035,566.82-77.754,715.533c191.291,153.527,541.164,230.938,840.563,297.172
				c150.437,33.282,288.113,63.734,386.173,99.556c225.177,107.206,336.49,216.992,368.146,327.841H3251.715z"/>
		</defs>
		<clipPath id="SVGID_00000020380746542739494680000010460321272716925100_">
			<use xlink:href="#SVGID_00000063610436360528538260000014487151890807942562_"  style="overflow:visible;"/>
		</clipPath>
		
			<linearGradient id="SVGID_00000114073517532878848960000009866976763521532584_" gradientUnits="userSpaceOnUse" x1="737.048" y1="8246.5273" x2="2606.4656" y2="6258.3535">
			<stop  offset="0" style="stop-color:#0131B8"/>
			<stop  offset="1" style="stop-color:#39D4FF"/>
		</linearGradient>
		
			<rect x="1.221" y="5601.212" style="clip-path:url(#SVGID_00000020380746542739494680000010460321272716925100_);fill:url(#SVGID_00000114073517532878848960000009866976763521532584_);" width="3250.494" height="3398.788"/>
	</g>
	<g>
		<defs>
			<path id="SVGID_00000114757972787591240700000009641148887082056116_" d="M3260.991,9000
				c1.718-133.527-99.089-267.009-359.114-397.828l-0.36-0.166c-96.26-36.536-231.635-67.296-378.961-100.773
				c-279.081-63.406-601.217-136.602-779.488-276.879c-172.148-135.456-209.814-334.357,56.838-649.451l0.416-0.604
				c149.699-271.73,10.624-428.014-215.528-543.866c-109.163-55.926-238.768-102.391-365.783-147.917
				c-174.424-62.53-343.974-123.313-448.423-204.378c-123.316-95.715-155.508-220.395,3.925-411.514
				c258.707-228.765,293.837-371.337,204.038-465.787c-112.43-118.257-422.075-158.897-732.143-199.589
				c-82.972-10.887-165.972-21.783-245.187-34.16v7.458c78.942,12.312,161.579,23.156,244.187,34
				c308.685,40.507,616.963,80.961,727.533,197.268c86.683,91.176,50.965,230.378-203.836,455.621l-0.39,0.393
				c-163.239,195.573-129.829,323.542-2.919,422.04c105.384,81.79,275.535,142.793,450.572,205.544
				c126.689,45.413,255.954,91.757,364.841,147.53c222.275,113.875,359.072,267.301,212.509,533.619
				c-270.003,319.224-231.012,521.375-55.478,659.496c179.644,141.362,502.69,214.762,782.566,278.351
				c146.959,33.39,282.002,64.081,377.76,100.403c256.392,129.027,355.932,260.229,354.506,391.188H3260.991z"/>
		</defs>
		<clipPath id="SVGID_00000150083317464810309900000003358482381111239043_">
			<use xlink:href="#SVGID_00000114757972787591240700000009641148887082056116_"  style="overflow:visible;"/>
		</clipPath>
		
			<linearGradient id="SVGID_00000036241650450167225380000012106333832013174422_" gradientUnits="userSpaceOnUse" x1="731.4528" y1="8241.2617" x2="2600.8691" y2="6253.0894">
			<stop  offset="0" style="stop-color:#0131B8"/>
			<stop  offset="1" style="stop-color:#39D4FF"/>
		</linearGradient>
		
			<rect x="1.221" y="5567.088" style="clip-path:url(#SVGID_00000150083317464810309900000003358482381111239043_);fill:url(#SVGID_00000036241650450167225380000012106333832013174422_);" width="3261.488" height="3432.912"/>
	</g>
	<g>
		<defs>
			<path id="SVGID_00000029026211055274322840000013156016026758695611_" d="M3251.751,9000
				c42.357-152.853-37.942-307.856-326.49-461.144l-0.386-0.188c-94.001-37.156-226.814-68.199-370.656-101.826
				c-259.317-60.61-554.645-129.653-721.354-257.713c-162.57-124.897-202.45-306.775,34.604-593.694l0.292-0.354l0.201-0.441
				c113.952-245.07-53.686-383.328-298.564-489.199c-99.313-42.939-211.112-80.462-321.893-117.644
				c-203.801-68.394-404.234-135.67-515.125-232.548c-120.936-105.637-135.034-247.421,70.767-466.546
				c306.659-259.447,357.136-417.079,265.587-517.722c-114.871-126.268-454.683-160.44-790.8-194.235
				c-94.225-9.478-188.164-18.922-276.714-30.348v7.426c88.358,11.38,182.002,20.802,275.928,30.247
				c334.639,33.646,672.967,67.669,785.858,191.758c88.514,97.303,37.536,251.544-265.074,507.521l-0.315,0.289
				c-209.797,223.311-194.7,368.442-70.351,477.069c112.076,97.91,313.214,165.417,517.729,234.061
				c110.745,37.166,222.502,74.679,321.272,117.378c240.863,104.131,405.945,239.752,294.918,479.079
				c-240.298,291.061-199.057,476.144-33.075,603.655c168.011,129.079,464.219,198.316,724.318,259.116
				c143.43,33.526,275.856,64.484,369.396,101.43c285.256,151.602,364.211,304.317,321.915,454.575H3251.751z"/>
		</defs>
		<clipPath id="SVGID_00000072964758663631593990000005534981568882731148_">
			<use xlink:href="#SVGID_00000029026211055274322840000013156016026758695611_"  style="overflow:visible;"/>
		</clipPath>
		
			<linearGradient id="SVGID_00000065037329043000754970000010277666557389840314_" gradientUnits="userSpaceOnUse" x1="732.1249" y1="8241.8984" x2="2601.5427" y2="6253.7246">
			<stop  offset="0" style="stop-color:#0131B8"/>
			<stop  offset="1" style="stop-color:#39D4FF"/>
		</linearGradient>
		
			<rect x="1.221" y="5536.396" style="clip-path:url(#SVGID_00000072964758663631593990000005534981568882731148_);fill:url(#SVGID_00000065037329043000754970000010277666557389840314_);" width="3292.887" height="3463.603"/>
	</g>
	<g>
		<defs>
			<path id="SVGID_00000176740347512514577480000002364000135747279288_" d="M3225.504,9000
				c89.52-171.213,38.221-347.848-276.883-524.469l-0.409-0.205c-91.819-37.916-222.148-69.318-362.513-103.134
				c-239.194-57.631-507.651-122.3-662.798-238.012c-153.287-114.313-195.593-279.223,12.136-538.229l0.38-0.471l0.205-0.581
				c104.891-291.269-275.775-407.949-655.474-524.333c-234.051-71.748-467.761-143.375-585.311-255.356
				c-121.274-115.521-118.485-275.042,136.923-524.427c355.581-290.604,421.458-463.193,327.87-569.678
				c-117.517-133.722-487.842-160.638-849.764-186.933c-105.806-7.686-210.891-15.325-308.646-25.549v7.409
				c97.65,10.198,202.502,17.818,308.068,25.491c360.351,26.185,729.068,52.981,844.511,184.336
				c90.605,103.089,24.302,272.25-327.078,559.395l-0.25,0.23c-259.58,253.392-261.541,416.322-137.005,534.959
				c118.875,113.228,353.464,185.135,588.398,257.145c375.718,115.157,752.367,230.625,650.717,514.378
				c-210.778,263.106-167.06,431.169-10.341,548.041c156.381,116.634,425.67,181.505,665.607,239.314
				c139.914,33.711,269.821,65.007,361.175,102.695c312.165,175.054,361.724,349.403,271.889,517.982H3225.504z"/>
		</defs>
		<clipPath id="SVGID_00000007430125616631945520000013133156481825195447_">
			<use xlink:href="#SVGID_00000176740347512514577480000002364000135747279288_"  style="overflow:visible;"/>
		</clipPath>
		
			<linearGradient id="SVGID_00000167386348856149222110000011389469631173110153_" gradientUnits="userSpaceOnUse" x1="730.7486" y1="8240.5977" x2="2600.1665" y2="6252.4238">
			<stop  offset="0" style="stop-color:#0131B8"/>
			<stop  offset="1" style="stop-color:#39D4FF"/>
		</linearGradient>
		
			<rect x="1.221" y="5508.624" style="clip-path:url(#SVGID_00000007430125616631945520000013133156481825195447_);fill:url(#SVGID_00000167386348856149222110000011389469631173110153_);" width="3313.803" height="3491.376"/>
	</g>
	<g>
		<defs>
			<path id="SVGID_00000072961081813356939300000007493997035125230779_" d="M3183.215,9000
				c9.565-12.649,18.451-25.348,26.555-38.091c112.517-177.038,79.41-362.261-237.759-549.693l-0.425-0.212
				c-89.851-38.919-217.794-70.747-354.666-104.799c-218.567-54.374-459.991-114.443-603.538-217.532
				c-144.446-103.744-189.511-251.791-10.77-483.209l0.49-0.636l0.179-0.776c55.62-242.502-309.912-342.357-684.425-444.664
				c-266.59-72.818-537.774-146.904-662.578-273.938c-122.878-125.06-103.352-302.655,204.135-583.616
				c405.202-322.078,486.514-509.504,390.76-621.525c-120.329-140.777-521.677-159.755-909.301-178.083
				c-117.592-5.559-233.914-11.065-340.652-19.874v7.383c106.699,8.786,222.862,14.283,340.286,19.841
				c385.965,18.241,785.582,37.146,903.771,175.401c92.819,108.599,11.133,292.571-389.757,611.207l-0.201,0.179
				c-311.785,284.827-330.6,465.865-204.583,594.132c126.258,128.511,398.458,202.862,666.042,275.964
				c370.63,101.238,732.358,200.063,679.201,435.29c-181.57,235.489-135.034,386.611,12.854,492.823
				c144.774,103.978,386.942,164.232,606.174,218.775c136.472,33.948,264.044,65.679,353.185,104.241
				c312.168,184.544,345.182,366.208,235.064,539.473c-8.916,14.032-18.782,28.013-29.497,41.938H3183.215z"/>
		</defs>
		<clipPath id="SVGID_00000079451925270417313630000014408014164021881986_">
			<use xlink:href="#SVGID_00000072961081813356939300000007493997035125230779_"  style="overflow:visible;"/>
		</clipPath>
		
			<linearGradient id="SVGID_00000153673625734267773800000000501088714433759899_" gradientUnits="userSpaceOnUse" x1="726.3693" y1="8236.4834" x2="2595.7871" y2="6248.3086">
			<stop  offset="0" style="stop-color:#0131B8"/>
			<stop  offset="1" style="stop-color:#39D4FF"/>
		</linearGradient>
		
			<rect x="1.221" y="5483.354" style="clip-path:url(#SVGID_00000079451925270417313630000014408014164021881986_);fill:url(#SVGID_00000153673625734267773800000000501088714433759899_);" width="3321.066" height="3516.646"/>
	</g>
	<g>
		<defs>
			<path id="SVGID_00000028307932563669606990000009622755711122340240_" d="M3125.558,9000
				c32.328-32.965,60.329-66.357,82.955-100.144c117.56-175.547,91.741-361.117-213.122-550.953l-0.438-0.23
				c-87.919-40.107-213.745-72.491-347.256-106.858c-197.125-50.744-411.095-105.822-542.985-195.969
				c-136.345-93.196-184.732-224.519-34.513-428.881l0.643-0.876l0.065-1.036c12.253-198.005-337.665-280.983-705.477-368.198
				c-302.087-71.634-616.327-146.147-749.153-288.629c-125.115-134.219-88.621-330.062,272.973-643.49
				c455.232-353.695,552.021-555.817,454.024-673.106c-123.28-147.554-556.255-158.002-969.597-167.963
				c-129.495-3.124-257.054-6.201-372.455-13.419v7.364c115.417,7.205,242.882,10.279,372.276,13.393
				c411.598,9.925,842.768,20.321,963.84,165.245c95.121,113.845-2.055,312.522-453.043,662.889l-0.156,0.12
				c-365.851,317.123-401.715,516.401-273.545,653.896c134.384,144.151,449.806,218.95,753.017,290.85
				c364.016,86.322,710.325,168.456,699.701,359.633c-152.732,208.372-102.79,342.666,36.981,438.202
				c133.037,90.933,347.688,146.192,545.437,197.093c133.063,34.253,258.483,66.536,345.659,106.241
				c299.964,186.849,325.785,368.841,210.713,540.689c-23.526,35.131-52.919,69.861-87.037,104.138H3125.558z"/>
		</defs>
		<clipPath id="SVGID_00000182510279696514384690000001357188998831581878_">
			<use xlink:href="#SVGID_00000028307932563669606990000009622755711122340240_"  style="overflow:visible;"/>
		</clipPath>
		
			<linearGradient id="SVGID_00000100354374782045082390000009162672863268755084_" gradientUnits="userSpaceOnUse" x1="721.6076" y1="8232.0068" x2="2591.0256" y2="6243.832">
			<stop  offset="0" style="stop-color:#0131B8"/>
			<stop  offset="1" style="stop-color:#39D4FF"/>
		</linearGradient>
		
			<rect x="1.221" y="5460.247" style="clip-path:url(#SVGID_00000182510279696514384690000001357188998831581878_);fill:url(#SVGID_00000100354374782045082390000009162672863268755084_);" width="3324.852" height="3539.753"/>
	</g>
	<g>
		<defs>
			<path id="SVGID_00000181088730525054209370000009889933835545005961_" d="M3052.898,9000
				c62.89-52.442,115.887-106.261,154.706-161.304c123.037-174.466,104.589-360.682-188.843-553.103l-0.435-0.25
				c-86.154-41.604-210.21-74.701-340.536-109.478c-174.372-46.523-360.045-96.069-480.034-172.693
				c-129.56-82.728-182.297-197.583-59.945-375.737l0.818-1.198l-0.224-1.403c-25.254-157.365-358.042-223.765-716.549-295.288
				c-340.958-68.02-705.328-140.722-847.027-299.354c-127.689-142.949-73.903-357.068,343.107-703.435
				c505.849-385.572,618.201-602.33,517.92-724.685c-126.349-154.147-591.658-155.499-1030.76-156.761
				c-141.456-0.406-280.188-0.809-403.877-6.302v7.357c123.751,5.478,262.454,5.88,403.88,6.286
				c437.306,1.266,900.7,2.61,1024.779,153.985c97.439,118.887-15.257,332.188-516.797,714.438l-0.127,0.091
				c-421.332,349.967-474.573,567.554-343.922,713.825c143.391,160.518,509.086,233.486,851.284,301.753
				c354.75,70.773,684.114,136.501,710.279,287.889c-124.433,182.089-70.036,299.763,62.939,384.679
				c121.004,77.276,307.279,126.975,482.225,173.651c129.849,34.65,253.45,67.63,338.912,108.848
				c288.554,189.307,307.077,371.938,186.612,542.755c-39.809,56.449-94.744,111.654-160.079,165.434H3052.898z"/>
		</defs>
		<clipPath id="SVGID_00000032639991592925655010000007813096822511779757_">
			<use xlink:href="#SVGID_00000181088730525054209370000009889933835545005961_"  style="overflow:visible;"/>
		</clipPath>
		
			<linearGradient id="SVGID_00000072254938611563353440000003585746154545254554_" gradientUnits="userSpaceOnUse" x1="717.5217" y1="8228.1621" x2="2586.9404" y2="6239.9873">
			<stop  offset="0" style="stop-color:#0131B8"/>
			<stop  offset="1" style="stop-color:#39D4FF"/>
		</linearGradient>
		
			<rect x="1.221" y="5439.009" style="clip-path:url(#SVGID_00000032639991592925655010000007813096822511779757_);fill:url(#SVGID_00000072254938611563353440000003585746154545254554_);" width="3329.42" height="3560.99"/>
	</g>
	<g>
		<defs>
			<path id="SVGID_00000053537982561367499140000017945941271160585398_" d="M2965.355,9000
				c100.248-70.848,184.605-144.829,241.538-221.515c129.004-173.788,118.066-360.978-164.748-556.2l-0.428-0.257
				c-84.79-43.588-207.57-77.595-334.941-112.871c-149.183-41.309-304.714-84.377-411.991-146.391
				c-125.465-72.537-184.778-171.417-89.351-324.916l1.026-1.656l-0.822-1.744c-56.611-120.475-369.786-170.92-715.149-226.547
				c-383.481-61.757-806.848-129.953-958.441-305.776c-130.436-151.274-58.988-383.701,414.556-763.354
				c556.856-417.592,684.847-648.899,582.252-776.121c-129.54-160.615-627.886-152.352-1092.835-144.625
				c-153.453,2.549-303.253,5.032-434.799,1.383v7.36c131.686,3.646,281.496,1.162,434.946-1.39
				c463.102-7.695,959.476-15.932,1086.669,141.78c99.793,123.742-28.52,351.568-580.983,765.861l-0.091,0.074
				c-477.943,383.176-548.901,619.094-415.578,773.731c153.427,177.943,578.255,246.369,963.045,308.344
				c341.614,55.023,651.512,104.956,708.614,220.635c-96.897,157.307-35.792,258.788,93.03,333.256
				c108.163,62.533,264.168,105.734,413.799,147.167c126.884,35.144,249.187,69.017,333.22,112.161
				c278.032,192.008,289.146,375.61,162.81,545.797c-58.03,78.17-144.917,153.608-248.249,225.811H2965.355z"/>
		</defs>
		<clipPath id="SVGID_00000052076655266462464950000003028441929252316819_">
			<use xlink:href="#SVGID_00000053537982561367499140000017945941271160585398_"  style="overflow:visible;"/>
		</clipPath>
		
			<linearGradient id="SVGID_00000172402367941207494350000003665870477663711880_" gradientUnits="userSpaceOnUse" x1="709.6898" y1="8220.8018" x2="2579.1069" y2="6232.6279">
			<stop  offset="0" style="stop-color:#0131B8"/>
			<stop  offset="1" style="stop-color:#39D4FF"/>
		</linearGradient>
		
			<rect x="1.221" y="5402.038" style="clip-path:url(#SVGID_00000052076655266462464950000003028441929252316819_);fill:url(#SVGID_00000172402367941207494350000003665870477663711880_);" width="3334.677" height="3597.962"/>
	</g>
	<g>
		<defs>
			<path id="SVGID_00000018206901821657738270000010958770606749383600_" d="M2862.79,9000
				c143.469-87.962,266.191-181.882,343.484-280.834c135.482-173.449,132.212-361.922-140.758-560.19l-0.403-0.263
				c-83.933-46.267-206.336-81.449-331.279-117.358c-118.245-33.991-238.791-68.644-330.558-113.813
				c-128.215-63.117-200.216-147.037-130.183-279.347l1.195-2.244l-1.744-1.87c-81.28-87.397-371.338-122.855-698.367-162.823
				c-429.621-52.504-923.34-112.845-1086.065-307.305c-133.277-159.265-43.796-410,487.228-823.203
				c608.106-449.708,751.789-695.464,646.857-827.404c-132.8-166.985-664.98-148.595-1155.874-131.618
				c-165.414,5.714-326.13,11.266-465.102,9.532v7.354c139.183,1.744,299.935-3.812,465.381-9.529
				c489.017-16.906,1019.149-35.228,1149.533,128.725c102.16,128.456-41.815,370.728-645.506,817.16l-0.081,0.055
				c-535.456,416.65-624.493,670.89-488.378,833.543c164.674,196.784,660.026,257.327,1091.065,310.009
				c323.23,39.504,610.145,74.582,691.87,158.605c-70.66,136.021,3.295,222.22,134.715,286.909
				c92.413,45.491,213.281,80.234,331.847,114.313c124.397,35.76,246.288,70.796,329.467,116.592
				c268.256,194.939,271.772,379.824,139.047,549.742c-78.52,100.523-204.482,195.963-351.591,285.259H2862.79z"/>
		</defs>
		<clipPath id="SVGID_00000171696599758596861680000012939260559176066191_">
			<use xlink:href="#SVGID_00000018206901821657738270000010958770606749383600_"  style="overflow:visible;"/>
		</clipPath>
		
			<linearGradient id="SVGID_00000119808357432851200230000004422329355137899946_" gradientUnits="userSpaceOnUse" x1="699.848" y1="8211.5459" x2="2569.2646" y2="6223.3726">
			<stop  offset="0" style="stop-color:#0131B8"/>
			<stop  offset="1" style="stop-color:#39D4FF"/>
		</linearGradient>
		
			<rect x="1.221" y="5356.363" style="clip-path:url(#SVGID_00000171696599758596861680000012939260559176066191_);fill:url(#SVGID_00000119808357432851200230000004422329355137899946_);" width="3340.534" height="3643.637"/>
	</g>
	<g>
		<defs>
			<path id="SVGID_00000131367162209654027320000001562961706848074114_" d="M2744.853,9000
				c191.469-103.494,360.412-217.132,460.715-339.211c142.527-173.463,147.157-363.536-116.686-565.112l-0.351-0.25
				c-84.095-50.117-207.719-86.884-331.094-123.563c-65.507-19.474-130.962-38.942-190.362-60.377
				c-159.342-57.507-274.408-129.057-226.259-253.106l1.091-2.825l-2.679-1.587c-98.576-58.455-360.75-80.248-662.425-105.323
				c-479.115-39.832-1058.208-87.968-1233.648-303.035c-136.157-166.914-28.302-435.936,560.895-882.855
				c659.642-481.92,819.06-742.082,711.789-878.612c-136.125-173.261-702.958-144.258-1219.923-117.81
				c-177.294,9.071-348.711,17.838-494.696,18.059v7.36c146.183-0.224,317.707-8.997,495.121-18.075
				c515.021-26.354,1079.724-55.248,1213.411,114.904c104.511,133.021-55.186,389.682-710.357,868.333l-0.055,0.042
				c-593.674,450.313-701.139,722.864-562.197,893.197c177.492,217.573,758.393,265.869,1239.028,305.821
				c298.048,24.776,557.382,46.345,656.415,102.728c-47.481,127.93,69.699,201.171,231.823,259.688
				c59.471,21.461,125.112,40.978,190.791,60.504c122.849,36.526,245.925,73.118,329.182,122.709
				c259.197,198.138,254.895,384.63,115.225,554.625c-101.679,123.751-274.746,238.985-470.365,343.772H2744.853z"/>
		</defs>
		<clipPath id="SVGID_00000034049518333898285490000005341395241935970227_">
			<use xlink:href="#SVGID_00000131367162209654027320000001562961706848074114_"  style="overflow:visible;"/>
		</clipPath>
		
			<linearGradient id="SVGID_00000047058611917945233780000000572737537653936290_" gradientUnits="userSpaceOnUse" x1="691.4096" y1="8203.6133" x2="2560.8281" y2="6215.4385">
			<stop  offset="0" style="stop-color:#0131B8"/>
			<stop  offset="1" style="stop-color:#39D4FF"/>
		</linearGradient>
		
			<rect x="1.221" y="5310.882" style="clip-path:url(#SVGID_00000034049518333898285490000005341395241935970227_);fill:url(#SVGID_00000047058611917945233780000000572737537653936290_);" width="3351.505" height="3689.118"/>
	</g>
	<g>
		<defs>
			<path id="SVGID_00000110469899323327208090000004377184551518915985_" d="M2610.81,9000
				c243.067-117.082,467.391-250.262,593.843-396.61c150.18-173.817,163.014-365.848-92.381-571.025l-0.302-0.217
				c-86.192-56.13-214.262-95.021-337.935-132.576c-196.713-59.747-382.198-116.079-365.477-231.411l0.445-3.048l-3.039-0.958
				c-107.352-33.955-335.272-43.916-602.109-55.559c-530.894-23.182-1216.303-53.107-1406.529-291.519
				c-139.069-174.281-12.523-461.582,635.454-942.339c711.37-514.216,886.554-788.702,776.949-929.697
				c-139.537-179.511-741.838-139.43-1284.96-103.277c-189.112,12.591-371.046,24.695-523.547,26.903v7.367
				c152.758-2.205,334.834-14.322,524.092-26.916c541.164-36.023,1141.273-75.955,1278.317,100.332
				c106.874,137.482-68.582,408.471-775.465,919.431l-0.039,0.022c-652.48,484.102-778.669,774.942-636.856,952.662
				c192.378,241.109,879.8,271.126,1412.253,294.373c263.795,11.513,489.443,21.377,597.093,54.319
				c-13.971,119.352,172.953,176.148,371.13,236.337c123.053,37.37,250.493,76.075,335.737,131.521
				c250.94,201.671,238.557,390.13,91.299,560.561c-128.047,148.199-357.552,283.048-605.09,401.328H2610.81z"/>
		</defs>
		<clipPath id="SVGID_00000014619129817146883630000001026204955432167858_">
			<use xlink:href="#SVGID_00000110469899323327208090000004377184551518915985_"  style="overflow:visible;"/>
		</clipPath>
		
			<linearGradient id="SVGID_00000016786356251570709780000003241136798890567820_" gradientUnits="userSpaceOnUse" x1="684.0581" y1="8196.7002" x2="2553.4756" y2="6208.5264">
			<stop  offset="0" style="stop-color:#0131B8"/>
			<stop  offset="1" style="stop-color:#39D4FF"/>
		</linearGradient>
		
			<rect x="1.221" y="5265.527" style="clip-path:url(#SVGID_00000014619129817146883630000001026204955432167858_);fill:url(#SVGID_00000016786356251570709780000003241136798890567820_);" width="3366.447" height="3734.473"/>
	</g>
	<g>
		<defs>
			<path id="SVGID_00000179605735285830970800000005872456014323741838_" d="M2459.507,9000
				c296.642-128.245,587.379-280.834,743.832-453.053c158.498-174.466,179.868-368.763-67.689-577.882l-0.25-0.186
				c-92.829-66.906-233.363-108.644-361.565-146.729c-145.037-43.072-274.184-81.433-297.921-145.16l-0.782-2.094l-2.279-0.305
				c-105.595-14.468-290.301-15.072-509.04-15.783c-581.84-1.909-1405-4.607-1613.08-270.457
				c-141.969-181.398,3.542-486.936,710.77-1001.632c763.283-546.564,954.285-835.333,842.342-980.701
				c-143.014-185.716-781.64-134.069-1351.026-88.03c-200.823,16.247-393.017,31.786-551.596,35.978v7.367
				c158.836-4.195,351.231-19.747,552.258-36.007c567.385-45.887,1203.748-97.342,1344.233,85.085
				c109.225,141.836-82.027,427.092-840.79,970.412c-711.776,518.005-856.959,827.111-712.283,1011.974
				c210.343,268.746,1035.727,271.451,1619.145,273.353c216.947,0.718,400.364,1.322,505.777,15.419
				c26.968,65.903,156.609,104.423,302.048,147.622c127.501,37.871,267.272,79.391,359.052,145.459
				c243.269,205.521,222.437,396.263,66.939,567.437c-158.339,174.29-455.576,328.64-756.786,457.913H2459.507z"/>
		</defs>
		<clipPath id="SVGID_00000021119881841839305270000001697545578970721965_">
			<use xlink:href="#SVGID_00000179605735285830970800000005872456014323741838_"  style="overflow:visible;"/>
		</clipPath>
		
			<linearGradient id="SVGID_00000059284353987092695880000007912234912361772206_" gradientUnits="userSpaceOnUse" x1="676.897" y1="8189.9673" x2="2546.3127" y2="6201.7949">
			<stop  offset="0" style="stop-color:#0131B8"/>
			<stop  offset="1" style="stop-color:#39D4FF"/>
		</linearGradient>
		
			<rect x="1.221" y="5220.303" style="clip-path:url(#SVGID_00000021119881841839305270000001697545578970721965_);fill:url(#SVGID_00000059284353987092695880000007912234912361772206_);" width="3381.986" height="3779.697"/>
	</g>
	<g>
		<defs>
			<path id="SVGID_00000124847298720894381440000010842383697068350342_" d="M2289.317,9000
				c349.718-136.238,720.838-308.159,912.155-508.492c167.531-175.427,197.859-372.334-42.458-585.745l-0.14-0.104
				c-114.839-93.15-297.077-136.167-441.656-170.284c-72.8-17.179-136.021-32.101-175.761-49.909l-0.753-0.348l-0.815-0.003
				c-88.384-0.983-216.771,4.065-368.344,10.036c-622.58,24.513-1637.103,64.458-1868.053-235.697
				C158.612,7271.169,323.35,6947.39,1090.221,6398.7c815.352-578.963,1022.185-881.963,907.921-1031.601
				c-146.553-191.92-822.368-128.261-1418.097-72.134c-212.414,20.007-414.624,39.056-578.824,45.228v7.371
				c164.43-6.172,366.89-25.241,579.57-45.28c593.716-55.933,1267.232-119.384,1411.214,69.169
				c111.576,146.108-95.507,445.598-906.31,1021.341c-771.445,551.934-935.882,879.29-788.329,1071.042
				c233.353,303.285,1250.391,263.243,1874.508,238.665c151.034-5.951,279.022-10.987,367.124-10.033
				c40.513,17.984,103.702,32.906,176.404,50.059c143.767,33.932,324.97,76.702,438.436,168.651
				c236.184,209.736,206.495,403.118,42.026,575.336c-193.57,202.69-572.918,376.49-926.934,513.485H2289.317z"/>
		</defs>
		<clipPath id="SVGID_00000121973933267975838060000009128763449617236645_">
			<use xlink:href="#SVGID_00000124847298720894381440000010842383697068350342_"  style="overflow:visible;"/>
		</clipPath>
		
			<linearGradient id="SVGID_00000017481263389419289350000018222420892731959951_" gradientUnits="userSpaceOnUse" x1="669.9177" y1="8183.4019" x2="2539.334" y2="6195.229">
			<stop  offset="0" style="stop-color:#0131B8"/>
			<stop  offset="1" style="stop-color:#39D4FF"/>
		</linearGradient>
		
			<rect x="1.221" y="5175.179" style="clip-path:url(#SVGID_00000121973933267975838060000009128763449617236645_);fill:url(#SVGID_00000017481263389419289350000018222420892731959951_);" width="3398.109" height="3824.821"/>
	</g>
	<g>
		<defs>
			<path id="SVGID_00000046308456539641453680000014999033524483886742_" d="M2097.805,9000
				c398.052-139.846,868.456-331.188,1101.085-562.911c177.352-176.664,217.129-376.539-16.503-594.622
				c-66.186-61.783-150.041-100.9-239.934-123.791c-109.875-27.98-228.775-31.714-335.399-22.984
				c-42.345,3.471-92.128,7.861-147.657,12.75c-614.925,54.263-1939.083,171.083-2203.709-178.067
				C107.913,7335.4,292.1,6993.41,1118.952,6410.687c867.55-611.411,1090.283-928.609,973.681-1082.445
				c-150.154-198.122-864.07-121.965-1486.234-55.601c-223.901,23.887-435.9,46.494-605.178,54.617v7.354
				c169.631-8.114,381.861-30.744,606.019-54.66c620.123-66.156,1331.678-142.05,1479.225,52.618
				c113.92,150.31-109.033,463.981-972.006,1072.166c-831.427,585.95-1015.347,931.528-864.943,1129.972
				c267.188,352.532,1594.304,235.44,2210.602,181.063c55.231-4.87,104.748-9.237,147.605-12.744
				c105.868-8.666,223.879-4.977,332.789,22.763c88.696,22.585,171.388,61.131,236.551,121.965
				c229.593,214.304,190.553,410.672,16.344,584.204c-235.431,234.509-716.565,427.874-1117.971,568.041H2097.805z"/>
		</defs>
		<clipPath id="SVGID_00000137849990525438576690000000437171286970414269_">
			<use xlink:href="#SVGID_00000046308456539641453680000014999033524483886742_"  style="overflow:visible;"/>
		</clipPath>
		
			<linearGradient id="SVGID_00000064338061407344466800000000960881994298799262_" gradientUnits="userSpaceOnUse" x1="663.1013" y1="8176.9961" x2="2532.5183" y2="6188.8228">
			<stop  offset="0" style="stop-color:#0131B8"/>
			<stop  offset="1" style="stop-color:#39D4FF"/>
		</linearGradient>
		
			<rect x="1.221" y="5130.12" style="clip-path:url(#SVGID_00000137849990525438576690000000437171286970414269_);fill:url(#SVGID_00000064338061407344466800000000960881994298799262_);" width="3414.798" height="3869.88"/>
	</g>
</g>
  </g>
  </g>
</svg>
